<svg width="24" height="24" viewBox="0 0 24 24" fill="none" xmlns="http://www.w3.org/2000/svg">
<path fill-rule="evenodd" clip-rule="evenodd" d="M20.7969 1.00619L20.8431 1.13727L23.0095 8.37142C23.1332 8.78588 23.0843 9.22342 22.8785 9.59727L22.7935 9.73388L13.4954 23.1776C13.3642 23.3686 13.1884 23.5247 12.9831 23.6322C12.7777 23.7396 12.5493 23.7953 12.3175 23.7942C12.0775 23.7942 11.8431 23.7342 11.6317 23.617L11.508 23.5403L1.53877 16.6468C1.38418 16.5403 1.25221 16.4042 1.1505 16.2464C1.04878 16.0886 0.979333 15.9122 0.946159 15.7274C0.886149 15.4025 0.941661 15.0668 1.10308 14.7785L1.17693 14.6585L10.476 1.21296C10.7206 0.856652 11.0935 0.622191 11.5145 0.550191L11.6751 0.531729L19.2092 0.00557549C19.546 -0.0202141 19.8821 0.062949 20.168 0.242789C20.4539 0.42263 20.6744 0.689618 20.7969 1.00434V1.00619ZM19.3191 1.20558H19.3052L19.2905 1.2065L11.7554 1.73265C11.6627 1.73872 11.5753 1.77843 11.5099 1.84434L11.4655 1.89881L2.16739 15.3434C2.13844 15.3842 2.12414 15.4336 2.12682 15.4835C2.1295 15.5335 2.14901 15.581 2.18216 15.6185L2.2237 15.6554L12.1929 22.549C12.2575 22.597 12.3249 22.5923 12.3609 22.5859C12.4002 22.5786 12.4368 22.5611 12.4671 22.5351L12.504 22.4936L21.8031 9.04804C21.8561 8.9715 21.8797 8.87842 21.8695 8.78588L21.8548 8.71758L19.6883 1.48158C19.6649 1.40181 19.6163 1.33177 19.5497 1.28201C19.4831 1.23224 19.4022 1.20542 19.3191 1.20558ZM15.3591 7.11604C15.4766 7.19728 15.5614 7.3176 15.5984 7.45555C15.6354 7.59351 15.6222 7.74012 15.5612 7.86927L15.5123 7.95419L15.1772 8.43788C15.8566 9.01481 16.2729 9.65635 16.3846 10.357C16.487 11.0012 16.3347 11.6599 15.96 12.1939C15.9122 12.257 15.8524 12.3099 15.7841 12.3498C15.7158 12.3897 15.6402 12.4156 15.5618 12.4262C15.4834 12.4367 15.4036 12.4317 15.3272 12.4113C15.2507 12.3909 15.1791 12.3556 15.1163 12.3074C14.9901 12.2117 14.9068 12.07 14.8847 11.9132C14.8626 11.7563 14.9034 11.5971 14.9982 11.4702C15.0166 11.4434 15.2843 11.0548 15.1929 10.5287C15.1357 10.1973 14.9483 9.87234 14.6372 9.55758L14.496 9.42281L12.7311 11.9751C14.3649 13.4428 13.8619 15.228 13.3117 16.0228C13.0116 16.4237 12.6093 16.7364 12.1468 16.9283C11.8166 17.0661 11.4624 17.1367 11.1046 17.136C10.6892 17.136 10.2102 17.0373 9.67754 16.7853L9.47447 16.6847L9.18831 17.1C9.10244 17.2249 8.97266 17.3129 8.82483 17.3464C8.677 17.3799 8.52198 17.3565 8.39064 17.2808C8.25931 17.2052 8.16131 17.0828 8.11617 16.9381C8.07103 16.7934 8.08207 16.637 8.14708 16.5L8.19601 16.4151L8.48585 15.996C6.9997 14.6483 7.30247 12.9776 7.71693 12.228C7.75511 12.1589 7.80653 12.098 7.86825 12.0488C7.92997 11.9996 8.00078 11.963 8.07664 11.9412C8.1525 11.9193 8.23192 11.9126 8.31037 11.9214C8.38882 11.9303 8.46476 11.9545 8.53385 11.9927C8.60295 12.0308 8.66384 12.0823 8.71307 12.144C8.76229 12.2057 8.79888 12.2765 8.82073 12.3524C8.84259 12.4282 8.84929 12.5076 8.84046 12.5861C8.83162 12.6645 8.80742 12.7405 8.76924 12.8096C8.60586 13.1426 8.54657 13.517 8.59909 13.8842C8.65161 14.2514 8.81352 14.5942 9.0637 14.868L9.17908 14.9945L11.0991 12.2188C10.1068 11.3447 9.92031 10.417 9.95447 9.75696C9.98034 9.24752 10.1381 8.75355 10.4123 8.32342C10.4585 8.25419 10.9606 7.52404 11.9815 7.32373C12.6065 7.20096 13.2757 7.31727 13.9735 7.65142L14.1831 7.7585L14.5209 7.26927C14.612 7.13806 14.7513 7.04827 14.9084 7.01955C15.0654 6.99084 15.2275 7.02553 15.3591 7.11604ZM12.0397 12.9767L10.164 15.6868C11.4979 16.3302 12.1874 15.5207 12.3249 15.3342C12.4726 15.1136 13.092 14.0327 12.0388 12.9767H12.0397ZM11.4065 9.00096C11.2772 9.19942 10.7695 10.1087 11.6714 11.0927L11.7914 11.2163L13.4982 8.74988C12.1154 8.07419 11.4822 8.89388 11.4065 9.00096ZM16.8619 3.05634C17.0237 2.82193 17.272 2.66141 17.5522 2.61008C17.8323 2.55875 18.1214 2.62083 18.3559 2.78265C18.5903 2.94448 18.7508 3.19279 18.8021 3.47297C18.8534 3.75315 18.7914 4.04224 18.6295 4.27665C18.4677 4.51094 18.2195 4.67135 17.9394 4.72259C17.6593 4.77383 17.3703 4.71171 17.136 4.54988C16.9017 4.38806 16.7413 4.13979 16.6901 3.8597C16.6388 3.57961 16.7 3.29063 16.8619 3.05634Z" fill="#070441"/>
</svg>
