<svg width="25" height="26" viewBox="0 0 25 26" fill="none" xmlns="http://www.w3.org/2000/svg">
<path d="M12.2277 0.739951C9.80941 0.758549 7.45094 1.49383 5.45054 2.85283C3.45014 4.21182 1.89765 6.13348 0.989395 8.3748C0.0811392 10.6161 -0.142091 13.0764 0.347935 15.4446C0.83796 17.8128 2.01923 19.9825 3.74237 21.6794C5.46551 23.3762 7.65312 24.524 10.0286 24.9775C12.404 25.4311 14.8606 25.17 17.0877 24.2274C19.3148 23.2848 21.2123 21.7029 22.5404 19.6818C23.8685 17.6608 24.5674 15.2913 24.5488 12.873C24.5239 9.63017 23.2117 6.53007 20.9011 4.25469C18.5904 1.9793 15.4705 0.715011 12.2277 0.739951ZM16.8749 9.11481L14.5889 9.13239C14.3926 9.14831 14.2083 9.2336 14.0691 9.373C13.9299 9.51239 13.8449 9.69679 13.8292 9.89317L13.8351 10.6587L16.121 10.6411L16.1446 13.7032L13.8587 13.7208L13.9057 19.8343L10.8436 19.8579L10.7966 13.7443L8.51064 13.7619L8.48709 10.6998L10.773 10.6822L10.7613 9.16183C10.8409 8.29271 11.2514 7.4874 11.908 6.9124C12.5645 6.3374 13.4169 6.03668 14.2889 6.07243L16.8513 6.05273L16.8749 9.11481Z" fill="white"/>
</svg>
