<svg width="518" height="519" viewBox="0 0 518 519" fill="none" xmlns="http://www.w3.org/2000/svg">
<g opacity="0.25">
<path fill-rule="evenodd" clip-rule="evenodd" d="M167.912 101.673H183.123V86.6461H167.912V101.673ZM183.527 102.422H167.513C167.293 102.422 167.114 102.254 167.114 102.047V86.2717C167.114 86.0657 167.292 85.8926 167.513 85.8926H183.527C183.747 85.8926 183.927 86.0648 183.927 86.2717V102.047C183.927 102.254 183.747 102.422 183.527 102.422Z" fill="white"/>
<path fill-rule="evenodd" clip-rule="evenodd" d="M195.536 102.422H183.526V101.668H195.136V86.6461H183.526V85.8926H195.536C195.756 85.8926 195.935 86.0648 195.935 86.267V102.048C195.935 102.254 195.757 102.422 195.536 102.422ZM167.515 102.422H155.505C155.285 102.422 155.101 102.254 155.101 102.048V86.267C155.101 86.0648 155.285 85.8926 155.506 85.8926H167.515V86.6461H155.905V101.668H167.515V102.422ZM169.917 99.0429H181.129V92.281H169.917V99.0429ZM168.479 78.3829H172.977L182.561 78.3679L177.78 73.8862C177.701 73.8169 177.659 73.7233 177.659 73.6241V70.1187H173.381V73.6251C173.381 73.7233 173.339 73.8169 173.261 73.8862L168.479 78.3829ZM172.977 79.1364H167.513C167.35 79.1364 167.203 79.0428 167.146 78.8996C167.083 78.762 167.114 78.6 167.229 78.4915L172.579 73.4678V69.7443C172.579 69.5374 172.762 69.3643 172.977 69.3643H178.063C178.278 69.3643 178.463 69.5374 178.463 69.7443V73.4678L183.811 78.4755C183.921 78.5851 183.958 78.747 183.895 78.8902C183.832 79.0278 183.69 79.1214 183.527 79.1214L172.977 79.1364ZM169.912 90.0299H181.123V89.2764H169.912V90.0299Z" fill="white"/>
<path fill-rule="evenodd" clip-rule="evenodd" d="M157.907 90.0299H165.114V89.2764H157.907V90.0299ZM185.926 90.0299H193.133V89.2764H185.926V90.0299ZM268.989 95.0825H293.974C293.974 97.5302 291.858 99.5193 289.244 99.5193H273.718C271.104 99.5193 268.989 97.5302 268.989 95.0825Z" fill="white"/>
<path fill-rule="evenodd" clip-rule="evenodd" d="M269.325 89.0629V94.4451C269.325 97.0659 271.619 99.1991 274.437 99.1991H288.525C291.344 99.1991 293.633 97.0659 293.633 94.446V89.0629H269.325ZM288.525 99.8338H274.437C271.246 99.8338 268.647 97.4207 268.647 94.446V88.7475C268.647 88.5696 268.8 88.432 268.989 88.432H293.969C294.157 88.432 294.309 88.5696 294.309 88.7475V94.446C294.309 97.4207 291.717 99.8338 288.525 99.8338ZM278.121 79.5585H285.517C285.343 77.7857 283.753 76.3919 281.817 76.3919C280.672 76.3919 279.601 76.8796 278.893 77.7314C278.446 78.264 278.184 78.8892 278.121 79.5585ZM285.868 80.195H277.769C277.58 80.195 277.433 80.0518 277.433 79.8739C277.433 78.9473 277.753 78.0711 278.363 77.3429C279.197 76.332 280.462 75.7563 281.816 75.7563C284.241 75.7563 286.21 77.6031 286.21 79.8749C286.21 80.0518 286.057 80.195 285.868 80.195Z" fill="white"/>
<path fill-rule="evenodd" clip-rule="evenodd" d="M290.26 88.6369H289.582V76.0474C289.582 74.1416 287.918 72.5906 285.871 72.5906C283.824 72.5906 282.155 74.1416 282.155 76.0483H281.483C281.483 73.7925 283.451 71.9551 285.871 71.9551C288.291 71.9551 290.259 73.7925 290.259 76.0483V88.6369H290.26ZM279.454 85.578C279.27 85.578 279.118 85.4348 279.118 85.2626V82.7259C279.118 82.5537 279.27 82.4114 279.454 82.4114C279.643 82.4114 279.79 82.5537 279.79 82.7259V85.2626C279.79 85.4348 279.643 85.578 279.454 85.578ZM281.48 85.578C281.292 85.578 281.145 85.4348 281.145 85.2626V82.7259C281.145 82.5537 281.292 82.4114 281.481 82.4114C281.665 82.4114 281.817 82.5537 281.817 82.7259V85.2626C281.817 85.4348 281.665 85.578 281.481 85.578M284.18 85.578C283.996 85.578 283.844 85.4348 283.844 85.2626V82.7259C283.844 82.5537 283.996 82.4114 284.18 82.4114C284.369 82.4114 284.516 82.5537 284.516 82.7259V85.2626C284.516 85.4348 284.369 85.578 284.18 85.578ZM77.37 84.3031H81.936L79.652 81.6242L77.37 84.3031ZM82.807 85.0866H76.497C76.335 85.0866 76.193 85.0024 76.12 84.8648C76.052 84.7318 76.073 84.569 76.172 84.451L79.327 80.7519C79.406 80.6583 79.527 80.604 79.652 80.604C79.778 80.604 79.899 80.6583 79.983 80.7519L83.133 84.451C83.233 84.569 83.253 84.7318 83.185 84.8648C83.117 85.0024 82.97 85.0866 82.807 85.0866ZM77.369 87.5437L79.652 90.2235L81.936 87.5437H77.369ZM79.652 91.2429C79.526 91.2429 79.406 91.1886 79.327 91.095L76.172 87.3967C76.072 87.2778 76.052 87.1159 76.12 86.983C76.193 86.8445 76.335 86.7612 76.498 86.7612H82.807C82.97 86.7612 83.117 86.8454 83.185 86.983C83.253 87.1159 83.232 87.2778 83.132 87.3967L79.983 91.095C79.899 91.1886 79.777 91.2429 79.652 91.2429ZM57.434 91.7801H71.648V80.0143H57.434V91.7801ZM72.068 92.5626H57.019C56.789 92.5626 56.599 92.3848 56.599 92.1742V79.6193C56.599 79.403 56.789 79.2261 57.019 79.2261H72.068C72.298 79.2261 72.488 79.403 72.488 79.6193V92.1751C72.488 92.3867 72.298 92.5636 72.068 92.5636V92.5626ZM52.421 95.7049H86.701V76.0942H52.421V95.7049ZM87.116 96.4883H52.001C51.771 96.4883 51.581 96.3105 51.581 96.0943V75.6936C51.581 75.4774 51.771 75.3051 52.001 75.3051H87.116C87.347 75.3051 87.536 75.4774 87.536 75.6936V96.0943C87.536 96.3114 87.347 96.4883 87.116 96.4883Z" fill="white"/>
<path fill-rule="evenodd" clip-rule="evenodd" d="M77.369 87.5168L79.652 90.1957L81.936 87.5168H77.369ZM77.369 84.2754H81.936L79.652 81.5955L77.369 84.2754ZM478.76 85.8722L469.002 85.8573V84.9409L478.76 84.9559V85.8722ZM498.276 85.9031L488.519 85.8881V84.9718L498.276 84.9867V85.9031ZM517.796 85.934L508.038 85.92V85.0036L517.796 85.0186V85.934ZM489.019 79.4773L479.262 79.4623V78.5469L489.019 78.5609V79.4773ZM508.049 79.5082L498.292 79.4932V78.5778L508.049 78.5927V79.5082ZM488.996 92.298L479.239 92.2831V91.3667L488.996 91.3817V92.298ZM508.026 92.3289L498.269 92.314V91.3976L508.026 91.4126V92.3289Z" fill="white"/>
<path fill-rule="evenodd" clip-rule="evenodd" d="M479.711 100.068H478.734L478.787 71.6779L479.763 71.6836L479.711 100.068ZM488.981 100.082H488.004L488.057 71.6929L489.033 71.6976L488.981 100.082ZM498.74 100.097H497.764L497.817 71.7079L498.793 71.7126L498.74 100.097ZM508.5 100.114H507.524L507.576 71.7238L508.553 71.7294L508.5 100.114ZM389.593 90.683H407.361L396.364 78.4398H378.712L389.593 90.683ZM408.269 91.4759H389.394C389.273 91.4759 389.152 91.4225 389.074 91.3289L377.809 78.6607L366.551 91.3289L365.905 90.8262L377.489 77.7939C377.568 77.7003 377.689 77.6517 377.809 77.6517H396.559C396.684 77.6517 396.805 77.7003 396.884 77.7893L408.589 90.8262C408.694 90.9386 408.72 91.1071 408.647 91.2447C408.578 91.3832 408.431 91.4759 408.269 91.4759ZM408.554 94.1417H389.2C388.969 94.1417 388.78 93.9638 388.78 93.7485C388.78 93.5314 388.969 93.3535 389.2 93.3535H408.553C408.783 93.3535 408.973 93.5314 408.973 93.7476C408.973 93.9647 408.783 94.1417 408.553 94.1417M121.075 21.3141H138.842L127.846 9.07085H110.194L121.075 21.3141ZM139.751 22.1022H120.881C120.755 22.1022 120.634 22.0535 120.555 21.9599L109.291 9.29175L98.032 21.9599L97.387 21.4573L108.97 8.42499C109.049 8.33139 109.17 8.28271 109.29 8.28271H128.045C128.165 8.28271 128.286 8.33139 128.365 8.42031L140.07 21.4573C140.175 21.5706 140.2 21.7381 140.127 21.8757C140.059 22.0142 139.912 22.1022 139.75 22.1022H139.751ZM140.036 24.7718H120.678C120.452 24.7718 120.263 24.5949 120.263 24.3786C120.263 24.1615 120.452 23.9846 120.678 23.9846H140.036C140.266 23.9846 140.456 24.1624 140.456 24.3777C140.456 24.5949 140.266 24.7718 140.036 24.7718ZM323.5 32.3012H338.71V17.2742H323.5V32.3012ZM339.115 33.0547H323.1C322.88 33.0547 322.701 32.8871 322.701 32.6803V16.8998C322.701 16.6939 322.88 16.5254 323.101 16.5254H339.115C339.335 16.5254 339.514 16.6939 339.514 16.8998V32.6812C339.514 32.8871 339.335 33.0556 339.114 33.0556L339.115 33.0547Z" fill="white"/>
<path fill-rule="evenodd" clip-rule="evenodd" d="M351.124 33.0558H339.114V32.3023H350.724V17.28H339.114V16.5265H351.124C351.344 16.5265 351.522 16.694 351.522 16.9009V32.6814C351.522 32.8873 351.344 33.0558 351.124 33.0558ZM323.1 33.0558H311.09C310.87 33.0558 310.687 32.8873 310.687 32.6814V16.9C310.687 16.694 310.87 16.5256 311.091 16.5256H323.101V17.28H311.49V32.3023H323.1V33.0558ZM325.504 29.6767H336.716V22.9139H325.504V29.6767ZM324.067 9.01394H328.565L338.149 9.00364L333.362 4.52195C333.289 4.44706 333.247 4.35346 333.247 4.25611V0.748822H328.969V4.25611C328.969 4.3544 328.922 4.448 328.849 4.52195L324.067 9.01394ZM328.565 9.76744H323.101C322.938 9.76744 322.791 9.67384 322.728 9.53063C322.67 9.39303 322.702 9.23016 322.818 9.12158L328.166 4.09793V0.374411C328.166 0.168485 328.344 0 328.565 0H333.645C333.866 0 334.045 0.168485 334.045 0.374411V4.09793L339.399 9.11222C339.514 9.21519 339.546 9.37805 339.483 9.51565C339.42 9.65886 339.278 9.75247 339.115 9.75247L328.565 9.76744ZM325.499 20.6581H336.711V19.9046H325.499V20.6581Z" fill="white"/>
<path fill-rule="evenodd" clip-rule="evenodd" d="M313.495 20.658H320.702V19.9045H313.495V20.658ZM341.513 20.658H348.72V19.9045H341.513V20.658ZM220.327 16.2212C221.187 16.2212 221.891 16.7725 221.891 17.4474C221.891 18.1213 221.187 18.6736 220.327 18.6736C219.466 18.6736 218.762 18.1213 218.762 17.4474C218.762 16.7725 219.466 16.2212 220.327 16.2212Z" fill="white"/>
<path fill-rule="evenodd" clip-rule="evenodd" d="M206.649 28.4788H223.839V4.57265H206.649V28.4788ZM224.232 29.0956H206.26C206.045 29.0956 205.872 28.9571 205.872 28.7849V4.26751C205.872 4.09528 206.045 3.96143 206.26 3.96143H224.232C224.448 3.96143 224.626 4.09528 224.626 4.26751V28.7849C224.626 28.9571 224.448 29.0956 224.232 29.0956ZM235.171 19.9001H235.953V6.41007H235.171V19.9001ZM227.287 19.9001H228.069V6.41007H227.287V19.9001Z" fill="white"/>
<path fill-rule="evenodd" clip-rule="evenodd" d="M228.143 13.4628H243.769V12.8516H228.143V13.4628Z" fill="white"/>
<path fill-rule="evenodd" clip-rule="evenodd" d="M243.768 19.8982H228.142V19.2879H243.374V7.02407H228.142V6.40723H243.768C243.983 6.40723 244.156 6.54482 244.156 6.71705V19.5921C244.156 19.7597 243.983 19.8982 243.768 19.8982ZM0.337975 25.7128H25.318C25.318 28.1605 23.202 30.1505 20.593 30.1505H5.06697C2.45297 30.1505 0.336975 28.1605 0.336975 25.7137" fill="white"/>
<path fill-rule="evenodd" clip-rule="evenodd" d="M0.676 19.6939V25.0817C0.676 27.6969 2.97 29.8301 5.789 29.8301H19.877C22.695 29.8301 24.984 27.6969 24.984 25.0817V19.6939H0.676ZM19.876 30.4648H5.79C2.598 30.4648 0 28.0517 0 25.0826V19.3784C0 19.2006 0.152 19.0583 0.341 19.0583H25.321C25.51 19.0583 25.661 19.2015 25.661 19.3784V25.0817C25.661 28.0517 23.069 30.4648 19.878 30.4648H19.876ZM9.467 10.1923H16.863C16.689 8.41851 15.099 7.02476 13.167 7.02476C12.018 7.02476 10.947 7.51243 10.239 8.36515C9.792 8.89682 9.53 9.52208 9.467 10.1923ZM17.214 10.8269H9.115C8.926 10.8269 8.779 10.6846 8.779 10.5068C8.779 9.58105 9.099 8.70493 9.709 7.97577C10.549 6.96579 11.808 6.39014 13.167 6.39014C15.587 6.39014 17.556 8.23692 17.556 10.5068C17.556 10.6846 17.403 10.8269 17.214 10.8269Z" fill="white"/>
<path fill-rule="evenodd" clip-rule="evenodd" d="M21.608 19.2698H20.931V6.68582C20.931 4.77539 19.267 3.22345 17.22 3.22345C15.173 3.22345 13.503 4.77539 13.503 6.68675H12.826C12.826 4.42531 14.8 2.58789 17.22 2.58789C19.64 2.58789 21.608 4.42531 21.608 6.68582V19.2698ZM10.805 16.2108C10.616 16.2108 10.469 16.0686 10.469 15.8954V13.3588C10.469 13.1865 10.616 13.0442 10.805 13.0442C10.989 13.0442 11.141 13.1865 11.141 13.3597V15.8963C11.141 16.0686 10.989 16.2108 10.805 16.2108ZM12.83 16.2108C12.646 16.2108 12.494 16.0686 12.494 15.8954V13.3588C12.494 13.1865 12.646 13.0442 12.829 13.0442C13.013 13.0442 13.165 13.1865 13.165 13.3597V15.8963C13.165 16.0686 13.013 16.2108 12.829 16.2108M15.531 16.2108C15.342 16.2108 15.195 16.0686 15.195 15.8954V13.3588C15.195 13.1865 15.342 13.0442 15.531 13.0442C15.715 13.0442 15.867 13.1865 15.867 13.3597V15.8963C15.867 16.0686 15.715 16.2108 15.531 16.2108ZM445.009 14.9341H449.575L447.292 12.2552L445.009 14.9341ZM450.447 15.7175H444.143C443.975 15.7175 443.833 15.6333 443.759 15.4957C443.696 15.3628 443.712 15.1999 443.812 15.082L446.967 11.3837C447.045 11.2901 447.166 11.2358 447.292 11.2358C447.418 11.2358 447.539 11.2901 447.622 11.3837L450.772 15.082C450.872 15.1999 450.892 15.3628 450.824 15.4957C450.756 15.6333 450.609 15.7175 450.447 15.7175ZM445.009 18.1755L447.292 20.8545L449.575 18.1755H445.009ZM447.292 21.8738C447.166 21.8738 447.045 21.8195 446.967 21.7259L443.812 18.0277C443.712 17.9088 443.696 17.7468 443.759 17.6139C443.833 17.4754 443.975 17.3921 444.143 17.3921H450.447C450.609 17.3921 450.757 17.4763 450.824 17.6139C450.893 17.7468 450.872 17.9088 450.772 18.0277L447.622 21.7259C447.539 21.8195 447.418 21.8738 447.292 21.8738ZM425.079 22.4111H439.293V10.6452H425.079V22.4111ZM439.707 23.1936H424.66C424.429 23.1936 424.24 23.0214 424.24 22.8051V10.2502C424.24 10.034 424.429 9.85708 424.66 9.85708H439.708C439.939 9.85708 440.128 10.034 440.128 10.2502V22.8061C440.128 23.0223 439.939 23.1945 439.708 23.1945L439.707 23.1936ZM420.061 26.3358H454.341V6.72513H420.061V26.3358ZM454.756 27.1193H419.64C419.409 27.1193 419.22 26.9414 419.22 26.7262V6.32451C419.22 6.10735 419.409 5.93512 419.64 5.93512H454.755C454.985 5.93512 455.175 6.10735 455.175 6.32451V26.7243C455.175 26.9414 454.985 27.1184 454.755 27.1184L454.756 27.1193Z" fill="white"/>
<path fill-rule="evenodd" clip-rule="evenodd" d="M445.009 18.1475L447.292 20.8264L449.575 18.1475H445.009ZM445.009 14.9079H449.575L447.292 12.228L445.009 14.9079ZM167.912 240.407H183.123V225.38H167.912V240.407ZM183.527 241.161H167.513C167.293 241.161 167.114 240.992 167.114 240.781V225.007C167.114 224.8 167.292 224.632 167.513 224.632H183.527C183.747 224.632 183.927 224.8 183.927 225.007V240.781C183.927 240.994 183.747 241.161 183.527 241.161V241.161Z" fill="white"/>
<path fill-rule="evenodd" clip-rule="evenodd" d="M195.536 241.161H183.526V240.407H195.136V225.384H183.526V224.631H195.536C195.756 224.631 195.935 224.799 195.935 225.006V240.786C195.935 240.992 195.757 241.161 195.536 241.161ZM167.515 241.161H155.505C155.285 241.161 155.101 240.992 155.101 240.786V225.005C155.101 224.799 155.285 224.63 155.506 224.63H167.515V225.385H155.905V240.407H167.515V241.161ZM169.917 237.777H181.129V231.014H169.917V237.777ZM168.479 217.118H172.977L182.561 217.104L177.78 212.621C177.701 212.553 177.659 212.459 177.659 212.361V208.854H173.381V212.361C173.381 212.459 173.339 212.553 173.261 212.621L168.479 217.118ZM172.977 217.872H167.513C167.35 217.872 167.203 217.779 167.146 217.635C167.083 217.498 167.114 217.335 167.229 217.226L172.579 212.203V208.479C172.579 208.268 172.762 208.1 172.977 208.1H178.063C178.278 208.1 178.463 208.268 178.463 208.479V212.203L183.811 217.211C183.921 217.32 183.958 217.483 183.895 217.625C183.832 217.764 183.69 217.857 183.527 217.857L172.977 217.872ZM169.912 228.764H181.123V228.009H169.912V228.764Z" fill="white"/>
<path fill-rule="evenodd" clip-rule="evenodd" d="M157.907 228.764H165.114V228.01H157.907V228.764ZM185.926 228.764H193.133V228.01H185.926V228.764ZM268.989 233.819H293.974C293.974 236.266 291.858 238.256 289.244 238.256H273.718C271.104 238.256 268.989 236.266 268.989 233.819Z" fill="white"/>
<path fill-rule="evenodd" clip-rule="evenodd" d="M269.325 227.799V233.182C269.325 235.803 271.619 237.935 274.437 237.935H288.525C291.344 237.935 293.633 235.802 293.633 233.182V227.799H269.325ZM288.525 238.57H274.437C271.246 238.57 268.647 236.152 268.647 233.182V227.484C268.647 227.306 268.8 227.164 268.989 227.164H293.969C294.157 227.164 294.309 227.307 294.309 227.484V233.182C294.309 236.152 291.717 238.57 288.525 238.57ZM278.121 218.295H285.517C285.343 216.522 283.753 215.128 281.817 215.128C280.672 215.128 279.601 215.615 278.893 216.467C278.446 217 278.184 217.625 278.121 218.295ZM285.868 218.93H277.769C277.58 218.93 277.433 218.787 277.433 218.61C277.433 217.684 277.753 216.807 278.363 216.078C279.197 215.068 280.462 214.493 281.816 214.493C284.241 214.493 286.21 216.339 286.21 218.61C286.21 218.788 286.057 218.93 285.868 218.93Z" fill="white"/>
<path fill-rule="evenodd" clip-rule="evenodd" d="M290.26 227.373H289.582V214.789C289.582 212.879 287.918 211.327 285.871 211.327C283.824 211.327 282.155 212.879 282.155 214.79H281.483C281.483 212.529 283.451 210.691 285.871 210.691C288.291 210.691 290.259 212.529 290.259 214.789V227.373H290.26ZM279.454 224.317C279.27 224.317 279.118 224.174 279.118 224.002V221.465C279.118 221.293 279.27 221.15 279.454 221.15C279.643 221.15 279.79 221.293 279.79 221.465V224.002C279.79 224.174 279.643 224.317 279.454 224.317ZM281.48 224.317C281.292 224.317 281.145 224.174 281.145 224.002V221.465C281.145 221.293 281.292 221.15 281.481 221.15C281.665 221.15 281.817 221.293 281.817 221.465V224.002C281.817 224.174 281.665 224.317 281.481 224.317M284.18 224.317C283.996 224.317 283.844 224.174 283.844 224.002V221.465C283.844 221.293 283.996 221.15 284.18 221.15C284.369 221.15 284.516 221.293 284.516 221.465V224.002C284.516 224.174 284.369 224.317 284.18 224.317ZM77.37 223.039H81.936L79.652 220.361L77.37 223.039ZM82.807 223.823H76.497C76.335 223.823 76.193 223.739 76.12 223.601C76.052 223.464 76.073 223.305 76.172 223.187L79.327 219.488C79.406 219.395 79.527 219.341 79.652 219.341C79.778 219.341 79.899 219.395 79.983 219.488L83.133 223.187C83.233 223.305 83.253 223.464 83.185 223.601C83.117 223.739 82.97 223.823 82.807 223.823ZM77.369 226.281L79.652 228.96L81.936 226.281H77.369ZM79.652 229.975C79.526 229.975 79.406 229.925 79.327 229.831L76.172 226.133C76.072 226.014 76.052 225.852 76.12 225.719C76.193 225.581 76.335 225.497 76.498 225.497H82.807C82.97 225.497 83.117 225.582 83.185 225.719C83.253 225.852 83.232 226.014 83.132 226.133L79.983 229.831C79.899 229.925 79.777 229.975 79.652 229.975ZM57.434 230.516H71.648V218.751H57.434V230.516ZM72.068 231.299H57.019C56.789 231.299 56.599 231.121 56.599 230.911V218.356C56.599 218.139 56.789 217.962 57.019 217.962H72.068C72.298 217.962 72.488 218.139 72.488 218.356V230.911C72.488 231.122 72.298 231.299 72.068 231.299ZM52.42 234.442H86.7V214.831H52.42V234.442ZM87.115 235.226H52.001C51.771 235.226 51.581 235.048 51.581 234.832V214.43C51.581 214.213 51.771 214.041 52.001 214.041H87.116C87.347 214.041 87.536 214.213 87.536 214.43V234.83C87.536 235.047 87.347 235.224 87.116 235.224L87.115 235.226Z" fill="white"/>
<path fill-rule="evenodd" clip-rule="evenodd" d="M77.369 226.253L79.652 228.932L81.936 226.253H77.369ZM77.369 223.01H81.936L79.652 220.331L77.369 223.01ZM478.76 224.607L469.002 224.592V223.677L478.76 223.691V224.607ZM498.276 224.639L488.519 224.624V223.708L498.276 223.723V224.639ZM517.796 224.67L508.038 224.655V223.739L517.796 223.754V224.67ZM489.019 218.215L479.262 218.2V217.285L489.019 217.3V218.215ZM508.049 218.244L498.292 218.23V217.314L508.049 217.329V218.244ZM488.996 231.033L479.239 231.018V230.103L488.996 230.118V231.033ZM508.026 231.065L498.269 231.05V230.134L508.026 230.148V231.065Z" fill="white"/>
<path fill-rule="evenodd" clip-rule="evenodd" d="M479.711 238.804H478.734L478.787 210.415L479.763 210.42L479.711 238.804ZM488.981 238.818H488.004L488.057 210.429L489.033 210.434L488.981 238.818ZM498.74 238.832H497.764L497.817 210.443L498.793 210.448L498.74 238.832ZM508.5 238.849H507.524L507.576 210.46L508.553 210.465L508.5 238.849ZM389.593 229.419H407.361L396.364 217.176H378.712L389.593 229.419ZM408.269 230.208H389.394C389.273 230.208 389.152 230.159 389.074 230.065L377.809 217.397L366.551 230.065L365.905 229.563L377.489 216.53C377.568 216.437 377.689 216.388 377.809 216.388H396.559C396.684 216.388 396.805 216.437 396.884 216.526L408.589 229.563C408.694 229.676 408.72 229.843 408.647 229.981C408.578 230.12 408.431 230.208 408.269 230.208ZM408.554 232.878H389.2C388.969 232.878 388.78 232.7 388.78 232.484C388.78 232.267 388.969 232.09 389.2 232.09H408.553C408.783 232.09 408.973 232.268 408.973 232.483C408.973 232.7 408.783 232.878 408.553 232.878M121.91 160.053H139.678L128.681 147.809H111.03L121.911 160.052L121.91 160.053ZM140.586 160.841H121.716C121.59 160.841 121.469 160.792 121.39 160.698L110.126 148.031L98.868 160.698L98.222 160.196L109.806 147.163C109.885 147.07 110.006 147.021 110.126 147.021H128.881C129.001 147.021 129.122 147.07 129.201 147.159L140.906 160.191C141.011 160.309 141.037 160.476 140.964 160.615C140.895 160.753 140.748 160.841 140.586 160.841ZM140.873 163.512H121.515C121.29 163.512 121.095 163.334 121.095 163.118C121.095 162.901 121.29 162.724 121.515 162.724H140.873C141.104 162.724 141.293 162.902 141.293 163.117C141.293 163.334 141.104 163.512 140.873 163.512ZM324.339 171.04H339.55V156.012H324.34V171.039L324.339 171.04ZM339.949 171.794H323.935C323.715 171.794 323.535 171.626 323.535 171.415V155.638C323.535 155.431 323.715 155.264 323.935 155.264H339.949C340.169 155.264 340.349 155.431 340.349 155.638V171.414C340.349 171.625 340.169 171.794 339.949 171.794Z" fill="white"/>
<path fill-rule="evenodd" clip-rule="evenodd" d="M351.96 171.791H339.95V171.037H351.56V156.016H339.95V155.262H351.96C352.18 155.262 352.358 155.435 352.358 155.637V171.416C352.358 171.623 352.18 171.791 351.959 171.791M323.936 171.791H311.926C311.706 171.791 311.522 171.623 311.522 171.416V155.636C311.522 155.435 311.706 155.261 311.926 155.261H323.936V156.016H312.326V171.037H323.936V171.791ZM326.339 168.41H337.55V161.647H326.339V168.41ZM324.902 147.75H329.4L338.98 147.74L334.198 143.253C334.124 143.184 334.082 143.09 334.082 142.991V139.485H329.805V142.992C329.805 143.09 329.757 143.184 329.684 143.253L324.902 147.75ZM329.4 148.503H323.936C323.774 148.503 323.626 148.41 323.564 148.266C323.506 148.129 323.537 147.967 323.653 147.857L329.002 142.834V139.11C329.002 138.904 329.18 138.736 329.4 138.736H334.481C334.701 138.736 334.881 138.904 334.881 139.11V142.834L340.229 147.848C340.344 147.957 340.381 148.114 340.319 148.257C340.255 148.395 340.113 148.488 339.951 148.488L329.4 148.503ZM326.339 159.397H337.55V158.643H326.339V159.397Z" fill="white"/>
<path fill-rule="evenodd" clip-rule="evenodd" d="M314.329 159.397H321.536V158.644H314.329V159.397ZM342.348 159.397H349.555V158.644H342.348V159.397ZM221.162 154.957C222.023 154.957 222.726 155.509 222.726 156.183C222.726 156.858 222.023 157.409 221.162 157.409C220.302 157.409 219.598 156.858 219.598 156.183C219.598 155.509 220.301 154.957 221.162 154.957Z" fill="white"/>
<path fill-rule="evenodd" clip-rule="evenodd" d="M207.488 167.218H224.678V143.31H207.488V167.216V167.218ZM225.072 167.833H207.095C206.88 167.833 206.706 167.696 206.706 167.523V143C206.706 142.833 206.88 142.695 207.095 142.695H225.072C225.287 142.695 225.461 142.833 225.461 143V167.523C225.461 167.696 225.287 167.833 225.072 167.833ZM236.011 158.638H236.793V145.153H236.011V158.638ZM228.127 158.638H228.909V145.153H228.127V158.638Z" fill="white"/>
<path fill-rule="evenodd" clip-rule="evenodd" d="M228.972 152.196H244.603V151.586H228.972V152.196Z" fill="white"/>
<path fill-rule="evenodd" clip-rule="evenodd" d="M244.605 158.636H228.975V158.025H244.212V145.762H228.974V145.15H244.605C244.821 145.15 244.994 145.284 244.994 145.456V158.331C244.994 158.499 244.821 158.636 244.605 158.636ZM1.17297 164.451H26.158C26.158 166.899 24.043 168.889 21.428 168.889H5.90297C3.28997 168.889 1.17397 166.899 1.17397 164.451" fill="white"/>
<path fill-rule="evenodd" clip-rule="evenodd" d="M1.51198 158.432V163.815C1.51198 166.436 3.80598 168.568 6.62398 168.568H20.712C23.531 168.568 25.819 166.436 25.819 163.815V158.432H1.51198ZM20.712 169.204H6.62398C3.43298 169.204 0.833984 166.785 0.833984 163.815V158.117C0.833984 157.939 0.986984 157.802 1.17598 157.802H26.156C26.344 157.802 26.496 157.94 26.496 158.117V163.815C26.496 166.785 23.904 169.204 20.712 169.204ZM10.305 148.928H17.7C17.527 147.155 15.937 145.761 14.005 145.761C12.855 145.761 11.785 146.248 11.076 147.096C10.63 147.632 10.368 148.258 10.305 148.928ZM18.052 149.563H9.95298C9.76398 149.563 9.61698 149.42 9.61698 149.243C9.61698 148.316 9.93699 147.44 10.547 146.711C11.386 145.702 12.646 145.125 14.005 145.125C16.425 145.125 18.393 146.972 18.393 149.243C18.393 149.421 18.241 149.563 18.053 149.563" fill="white"/>
<path fill-rule="evenodd" clip-rule="evenodd" d="M22.443 158.006H21.766V145.422C21.766 143.512 20.102 141.96 18.055 141.96C16.008 141.96 14.338 143.512 14.338 145.423H13.667C13.667 143.162 15.635 141.325 18.055 141.325C20.475 141.325 22.443 143.162 22.443 145.422V158.006ZM11.64 154.947C11.451 154.947 11.304 154.805 11.304 154.633V152.096C11.304 151.924 11.451 151.781 11.64 151.781C11.824 151.781 11.976 151.924 11.976 152.096V154.633C11.976 154.805 11.824 154.947 11.64 154.947ZM13.665 154.947C13.476 154.947 13.329 154.805 13.329 154.633V152.096C13.329 151.924 13.476 151.781 13.665 151.781C13.849 151.781 14.001 151.924 14.001 152.096V154.633C14.001 154.805 13.849 154.947 13.665 154.947ZM16.366 154.947C16.177 154.947 16.03 154.805 16.03 154.633V152.096C16.03 151.924 16.177 151.781 16.366 151.781C16.55 151.781 16.702 151.924 16.702 152.096V154.633C16.702 154.805 16.55 154.947 16.366 154.947ZM445.844 153.67H450.411L448.128 150.991L445.844 153.67ZM451.282 154.454H444.978C444.81 154.454 444.668 154.37 444.595 154.232C444.527 154.099 444.548 153.936 444.648 153.818L447.802 150.119C447.881 150.026 448.002 149.971 448.128 149.971C448.254 149.971 448.374 150.026 448.458 150.119L451.608 153.818C451.708 153.936 451.728 154.099 451.66 154.232C451.592 154.37 451.445 154.454 451.282 154.454ZM445.844 156.911L448.128 159.591L450.411 156.911H445.844ZM448.128 160.605C448.002 160.605 447.881 160.556 447.802 160.462L444.648 156.763C444.548 156.645 444.527 156.482 444.595 156.349C444.669 156.212 444.81 156.128 444.978 156.128H451.282C451.445 156.128 451.592 156.212 451.66 156.349C451.728 156.482 451.707 156.645 451.608 156.763L448.458 160.462C448.374 160.556 448.254 160.605 448.128 160.605ZM425.909 161.146H440.123V149.381H425.909V161.146ZM440.543 161.93H425.494C425.264 161.93 425.074 161.752 425.074 161.541V148.987C425.074 148.769 425.264 148.593 425.494 148.593H440.543C440.773 148.593 440.963 148.77 440.963 148.986V161.541C440.963 161.753 440.773 161.93 440.543 161.93ZM420.896 165.072H455.176V145.46H420.896V165.072ZM455.591 165.856H420.476C420.246 165.856 420.056 165.678 420.056 165.462V145.061C420.056 144.845 420.246 144.671 420.476 144.671H455.591C455.822 144.671 456.011 144.845 456.011 145.061V165.462C456.011 165.678 455.822 165.856 455.591 165.856Z" fill="white"/>
<path fill-rule="evenodd" clip-rule="evenodd" d="M445.844 156.884L448.128 159.563L450.411 156.884H445.844ZM445.844 153.643H450.411L448.128 150.964L445.844 153.643ZM167.912 379.145H183.123V364.119H167.912V379.146V379.145ZM183.527 379.899H167.513C167.293 379.899 167.114 379.727 167.114 379.52V363.745C167.114 363.538 167.292 363.365 167.513 363.365H183.527C183.747 363.365 183.927 363.538 183.927 363.745V379.52C183.927 379.727 183.747 379.899 183.527 379.899Z" fill="white"/>
<path fill-rule="evenodd" clip-rule="evenodd" d="M195.536 379.896H183.526V379.142H195.136V364.121H183.526V363.367H195.536C195.756 363.367 195.935 363.535 195.935 363.741V379.522C195.935 379.728 195.756 379.897 195.535 379.897M167.515 379.896H155.505C155.285 379.896 155.101 379.728 155.101 379.522V363.741C155.101 363.535 155.285 363.367 155.506 363.367H167.515V364.121H155.905V379.142H167.515V379.896ZM169.917 376.515H181.129V369.753H169.917V376.515ZM168.479 355.854H172.977L182.561 355.84L177.78 351.358C177.701 351.289 177.659 351.195 177.659 351.096V347.59H173.381V351.097C173.381 351.196 173.339 351.289 173.261 351.358L168.479 355.855V355.854ZM172.977 356.609H167.513C167.35 356.609 167.203 356.515 167.146 356.372C167.083 356.234 167.114 356.072 167.229 355.963L172.579 350.939V347.216C172.579 347.01 172.762 346.836 172.977 346.836H178.063C178.278 346.836 178.463 347.009 178.463 347.216V350.939L183.811 355.953C183.921 356.056 183.958 356.219 183.895 356.357C183.832 356.5 183.69 356.594 183.527 356.594L172.977 356.609ZM169.912 367.502H181.123V366.749H169.912V367.502Z" fill="white"/>
<path fill-rule="evenodd" clip-rule="evenodd" d="M157.907 367.502H165.114V366.749H157.907V367.502ZM185.926 367.502H193.133V366.749H185.926V367.502ZM268.989 372.554H293.974C293.974 375.006 291.858 376.991 289.244 376.991H273.718C271.104 376.991 268.989 375.006 268.989 372.554Z" fill="white"/>
<path fill-rule="evenodd" clip-rule="evenodd" d="M269.325 366.534V371.923C269.325 374.538 271.619 376.671 274.437 376.671H288.525C291.344 376.671 293.633 374.538 293.633 371.923V366.535L269.325 366.534ZM288.525 377.307H274.437C271.246 377.307 268.647 374.893 268.647 371.923V366.22C268.647 366.042 268.8 365.9 268.989 365.9H293.969C294.157 365.9 294.309 366.043 294.309 366.22V371.923C294.309 374.893 291.717 377.307 288.525 377.307ZM278.121 357.034H285.517C285.343 355.26 283.753 353.866 281.817 353.866C280.672 353.866 279.601 354.354 278.893 355.206C278.446 355.738 278.184 356.368 278.121 357.034ZM285.868 357.669H277.769C277.58 357.669 277.433 357.526 277.433 357.348C277.433 356.422 277.753 355.546 278.363 354.817C279.197 353.807 280.462 353.231 281.816 353.231C284.241 353.231 286.21 355.078 286.21 357.348C286.21 357.526 286.057 357.669 285.868 357.669Z" fill="white"/>
<path fill-rule="evenodd" clip-rule="evenodd" d="M290.26 366.111H289.582V353.527C289.582 351.617 287.918 350.065 285.871 350.065C283.824 350.065 282.155 351.617 282.155 353.528H281.483C281.483 351.267 283.451 349.43 285.871 349.43C288.291 349.43 290.259 351.267 290.259 353.527V366.111H290.26ZM279.454 363.052C279.27 363.052 279.118 362.91 279.118 362.737V360.2C279.118 360.028 279.27 359.886 279.454 359.886C279.643 359.886 279.79 360.028 279.79 360.201V362.738C279.79 362.91 279.643 363.052 279.454 363.052ZM281.48 363.052C281.292 363.052 281.145 362.91 281.145 362.737V360.2C281.145 360.028 281.292 359.886 281.481 359.886C281.665 359.886 281.817 360.028 281.817 360.201V362.738C281.817 362.91 281.665 363.052 281.481 363.052M284.18 363.052C283.996 363.052 283.844 362.91 283.844 362.737V360.2C283.844 360.028 283.996 359.886 284.18 359.886C284.369 359.886 284.516 360.028 284.516 360.201V362.738C284.516 362.91 284.369 363.052 284.18 363.052ZM77.37 361.775H81.936L79.652 359.096L77.37 361.775ZM82.807 362.558H76.497C76.335 362.558 76.193 362.475 76.12 362.337C76.052 362.204 76.073 362.041 76.172 361.923L79.327 358.224C79.406 358.131 79.527 358.076 79.652 358.076C79.778 358.076 79.899 358.131 79.983 358.224L83.133 361.923C83.233 362.041 83.253 362.204 83.185 362.337C83.117 362.475 82.97 362.558 82.807 362.558ZM77.369 365.016L79.652 367.696L81.936 365.016H77.369ZM79.652 368.715C79.526 368.715 79.406 368.661 79.327 368.567L76.172 364.868C76.072 364.75 76.052 364.587 76.12 364.454C76.193 364.317 76.335 364.233 76.498 364.233H82.807C82.97 364.233 83.117 364.317 83.185 364.454C83.253 364.587 83.232 364.75 83.132 364.868L79.983 368.567C79.899 368.661 79.777 368.715 79.652 368.715ZM57.434 369.251H71.648V357.486H57.434V369.251ZM72.068 370.04H57.019C56.789 370.04 56.599 369.858 56.599 369.646V357.092C56.599 356.874 56.789 356.697 57.019 356.697H72.068C72.298 356.697 72.488 356.875 72.488 357.091V369.646C72.488 369.858 72.298 370.04 72.068 370.04ZM52.421 373.177H86.701V353.565H52.421V373.177ZM87.116 373.961H52.001C51.771 373.961 51.581 373.783 51.581 373.567V353.166C51.581 352.95 51.771 352.776 52.001 352.776H87.116C87.347 352.776 87.536 352.95 87.536 353.166V373.567C87.536 373.783 87.347 373.96 87.116 373.96V373.961Z" fill="white"/>
<path fill-rule="evenodd" clip-rule="evenodd" d="M77.369 364.989L79.652 367.668L81.936 364.989H77.369ZM77.369 361.749H81.936L79.652 359.069L77.369 361.749ZM501.208 364.202H505.775L503.492 361.523L501.208 364.202ZM506.646 364.985H500.342C500.174 364.985 500.032 364.901 499.959 364.763C499.891 364.626 499.912 364.467 500.012 364.349L503.166 360.651C503.245 360.558 503.366 360.503 503.492 360.503C503.618 360.503 503.738 360.558 503.822 360.651L506.972 364.349C507.072 364.467 507.092 364.626 507.024 364.763C506.956 364.902 506.809 364.985 506.646 364.985ZM501.208 367.443L503.492 370.122L505.775 367.443H501.208ZM503.492 371.137C503.366 371.137 503.245 371.087 503.166 370.993L500.012 367.295C499.912 367.176 499.891 367.014 499.959 366.881C500.033 366.743 500.174 366.655 500.342 366.655H506.646C506.809 366.655 506.956 366.743 507.024 366.881C507.092 367.014 507.071 367.176 506.972 367.295L503.822 370.993C503.738 371.087 503.618 371.137 503.492 371.137ZM481.278 371.679H495.492V359.913H481.278V371.679ZM495.908 372.461H480.858C480.628 372.461 480.438 372.284 480.438 372.073V359.518C480.438 359.302 480.628 359.125 480.858 359.125H495.908C496.138 359.125 496.327 359.302 496.327 359.518V372.073C496.327 372.284 496.138 372.461 495.907 372.461H495.908ZM476.255 375.599H510.535V355.987H476.255V375.599ZM510.955 376.387H475.841C475.61 376.387 475.421 376.209 475.421 375.994V355.592C475.421 355.375 475.61 355.203 475.841 355.203H510.956C511.186 355.203 511.376 355.375 511.376 355.592V375.992C511.376 376.209 511.186 376.386 510.956 376.386L510.955 376.387Z" fill="white"/>
<path fill-rule="evenodd" clip-rule="evenodd" d="M501.208 367.415L503.492 370.095L505.775 367.415H501.208ZM501.208 364.175H505.775L503.492 361.496L501.208 364.175ZM389.593 368.156H407.361L396.364 355.912H378.712L389.593 368.155V368.156ZM408.269 368.943H389.394C389.273 368.943 389.152 368.895 389.074 368.801L377.809 356.133L366.551 368.801L365.905 368.298L377.489 355.266C377.568 355.173 377.689 355.124 377.809 355.124H396.559C396.684 355.124 396.805 355.173 396.884 355.262L408.589 368.298C408.694 368.412 408.72 368.579 408.647 368.717C408.578 368.855 408.431 368.943 408.269 368.943ZM408.554 371.614H389.2C388.969 371.614 388.78 371.436 388.78 371.22C388.78 371.003 388.969 370.826 389.2 370.826H408.553C408.783 370.826 408.973 371.004 408.973 371.219C408.973 371.436 408.783 371.614 408.553 371.614M122.748 298.789H140.516L129.519 286.545H111.867L122.748 298.788V298.789ZM141.424 299.582H122.554C122.428 299.582 122.307 299.528 122.229 299.434L110.965 286.767L99.705 299.434L99.06 298.931L110.644 285.9C110.724 285.806 110.844 285.757 110.964 285.757H129.719C129.839 285.757 129.96 285.806 130.039 285.894L141.744 298.931C141.849 299.045 141.875 299.212 141.802 299.351C141.734 299.488 141.587 299.582 141.424 299.582ZM141.706 302.248H122.354C122.123 302.248 121.934 302.07 121.934 301.853C121.934 301.637 122.123 301.46 122.354 301.46H141.706C141.937 301.46 142.126 301.637 142.126 301.853C142.126 302.07 141.937 302.248 141.706 302.248ZM325.174 309.773H340.384V294.746H325.174V309.773ZM340.789 310.527H324.775C324.555 310.527 324.375 310.359 324.375 310.152V294.373C324.375 294.171 324.555 293.999 324.775 293.999H340.789C341.004 293.999 341.188 294.171 341.188 294.373V310.152C341.188 310.359 341.004 310.527 340.789 310.527Z" fill="white"/>
<path fill-rule="evenodd" clip-rule="evenodd" d="M352.794 310.53H340.784V309.776H352.395V294.754H340.785V294H352.795C353.015 294 353.193 294.169 353.193 294.375V310.156C353.193 310.362 353.015 310.53 352.794 310.53ZM324.774 310.53H312.764C312.544 310.53 312.361 310.362 312.361 310.155V294.376C312.361 294.17 312.544 294.001 312.765 294.001H324.775V294.755H313.164V309.777H324.774V310.53ZM327.173 307.149H338.385V300.386H327.173V307.149ZM325.74 286.488H330.238L339.818 286.478L335.036 281.991C334.962 281.922 334.92 281.828 334.92 281.729V278.223H330.642V281.73C330.642 281.828 330.595 281.922 330.522 281.991L325.74 286.488ZM330.238 287.241H324.774C324.611 287.241 324.464 287.148 324.401 287.005C324.338 286.867 324.375 286.705 324.491 286.596L329.839 281.573V277.849C329.839 277.637 330.018 277.469 330.239 277.469H335.319C335.539 277.469 335.718 277.638 335.718 277.849V281.573L341.072 286.586C341.182 286.695 341.219 286.852 341.156 286.991C341.093 287.133 340.951 287.226 340.788 287.226L330.238 287.241ZM327.173 298.13H338.385V297.377H327.173V298.13Z" fill="white"/>
<path fill-rule="evenodd" clip-rule="evenodd" d="M315.164 298.13H322.371V297.377H315.164V298.13ZM343.188 298.13H350.394V297.377H343.188V298.13ZM221.998 293.692C222.858 293.692 223.562 294.245 223.562 294.919C223.562 295.593 222.859 296.145 221.998 296.145C221.138 296.145 220.434 295.593 220.434 294.919C220.434 294.245 221.137 293.692 221.998 293.692Z" fill="white"/>
<path fill-rule="evenodd" clip-rule="evenodd" d="M208.323 305.956H225.513V282.05H208.323V305.956ZM225.907 306.567H207.935C207.715 306.567 207.541 306.429 207.541 306.262V281.738C207.541 281.567 207.714 281.434 207.935 281.434H225.907C226.122 281.434 226.295 281.567 226.295 281.739V306.262C226.295 306.429 226.122 306.567 225.907 306.567ZM236.845 297.372H237.627V283.886H236.845V297.372ZM228.962 297.372H229.744V283.886H228.962V297.372Z" fill="white"/>
<path fill-rule="evenodd" clip-rule="evenodd" d="M229.812 290.935H245.438V290.324H229.812V290.935Z" fill="white"/>
<path fill-rule="evenodd" clip-rule="evenodd" d="M245.441 297.372H229.815V296.762H245.053V284.498H229.815V283.888H245.441C245.656 283.888 245.835 284.021 245.835 284.193V297.067C245.835 297.235 245.656 297.372 245.441 297.372ZM2.009 303.188H26.994C26.994 305.64 24.878 307.624 22.264 307.624H6.738C4.124 307.624 2.009 305.64 2.009 303.188Z" fill="white"/>
<path fill-rule="evenodd" clip-rule="evenodd" d="M2.34698 297.168V302.551C2.34698 305.172 4.64098 307.304 7.45898 307.304H21.547C24.366 307.304 26.654 305.172 26.654 302.551V297.169H2.34698V297.168ZM21.547 307.94H7.45998C4.26898 307.94 1.66998 305.521 1.66998 302.551V296.852C1.66998 296.675 1.82298 296.532 2.01198 296.532H26.992C27.18 296.532 27.332 296.676 27.332 296.852V302.551C27.332 305.521 24.739 307.94 21.547 307.94ZM11.14 287.664H18.536C18.363 285.891 16.772 284.497 14.836 284.497C13.691 284.497 12.621 284.984 11.912 285.836C11.466 286.368 11.203 286.994 11.14 287.663M18.888 288.3H10.788C10.6 288.3 10.453 288.157 10.453 287.979C10.453 287.052 10.773 286.176 11.382 285.448C12.222 284.437 13.482 283.861 14.836 283.861C17.261 283.861 19.229 285.708 19.229 287.98C19.229 288.157 19.077 288.3 18.888 288.3Z" fill="white"/>
<path fill-rule="evenodd" clip-rule="evenodd" d="M23.278 296.742H22.601V284.158C22.601 282.247 20.937 280.695 18.891 280.695C16.843 280.695 15.174 282.247 15.174 284.158H14.502C14.502 281.897 16.471 280.06 18.89 280.06C21.31 280.06 23.278 281.897 23.278 284.158V296.742ZM12.476 293.683C12.292 293.683 12.14 293.541 12.14 293.368V290.832C12.14 290.654 12.292 290.516 12.476 290.516C12.665 290.516 12.812 290.654 12.812 290.832V293.368C12.812 293.541 12.665 293.683 12.476 293.683ZM14.5 293.683C14.312 293.683 14.165 293.541 14.165 293.368V290.832C14.165 290.654 14.312 290.516 14.501 290.516C14.684 290.516 14.837 290.654 14.837 290.832V293.368C14.837 293.541 14.683 293.683 14.5 293.683ZM17.202 293.683C17.012 293.683 16.866 293.541 16.866 293.368V290.832C16.866 290.654 17.013 290.516 17.202 290.516C17.385 290.516 17.538 290.654 17.538 290.832V293.368C17.538 293.541 17.385 293.683 17.202 293.683ZM446.683 292.409H451.249L448.966 289.729L446.683 292.409ZM452.12 293.192H445.811C445.649 293.192 445.507 293.107 445.433 292.97C445.365 292.832 445.386 292.67 445.486 292.556L448.64 288.858C448.72 288.764 448.84 288.71 448.966 288.71C449.092 288.71 449.213 288.764 449.296 288.858L452.446 292.556C452.546 292.669 452.566 292.832 452.498 292.97C452.43 293.108 452.283 293.192 452.12 293.192ZM446.683 295.65L448.966 298.328L451.249 295.65H446.683ZM448.966 299.343C448.84 299.343 448.719 299.294 448.64 299.201L445.486 295.502C445.386 295.384 445.366 295.221 445.433 295.088C445.507 294.95 445.649 294.861 445.811 294.861H452.121C452.283 294.861 452.431 294.95 452.498 295.088C452.567 295.221 452.546 295.384 452.446 295.502L449.296 299.201C449.213 299.294 449.092 299.343 448.966 299.343ZM426.747 299.886H440.961V288.119H426.747V299.885V299.886ZM441.381 300.669H426.333C426.102 300.669 425.913 300.491 425.913 300.274V287.725C425.913 287.508 426.102 287.331 426.333 287.331H441.381C441.612 287.331 441.801 287.509 441.801 287.724V300.274C441.801 300.491 441.612 300.668 441.381 300.668V300.669ZM421.735 303.806H456.015V284.194H421.735V303.806ZM456.43 304.593H421.315C421.084 304.593 420.895 304.416 420.895 304.2V283.799C420.895 283.581 421.084 283.409 421.315 283.409H456.43C456.66 283.409 456.85 283.581 456.85 283.799V304.198C456.85 304.415 456.66 304.592 456.43 304.592V304.593Z" fill="white"/>
<path fill-rule="evenodd" clip-rule="evenodd" d="M446.683 295.619L448.966 298.299L451.249 295.619H446.683ZM446.683 292.38H451.249L448.966 289.7L446.683 292.38ZM167.912 517.879H183.123V502.852H167.912V517.879ZM183.527 518.633H167.513C167.293 518.633 167.114 518.464 167.114 518.258V502.482C167.114 502.271 167.292 502.103 167.513 502.103H183.527C183.747 502.103 183.927 502.271 183.927 502.482V518.258C183.927 518.464 183.747 518.633 183.527 518.633Z" fill="white"/>
<path fill-rule="evenodd" clip-rule="evenodd" d="M195.536 518.632H183.526V517.878H195.136V502.857H183.526V502.104H195.536C195.756 502.104 195.935 502.27 195.935 502.478V518.257C195.935 518.464 195.757 518.632 195.536 518.632ZM167.515 518.632H155.505C155.285 518.632 155.101 518.464 155.101 518.257V502.477C155.101 502.271 155.285 502.103 155.506 502.103H167.515V502.857H155.905V517.878H167.515V518.632ZM169.917 515.254H181.129V508.492H169.917V515.254ZM168.479 494.592H172.977L182.561 494.578L177.78 490.096C177.701 490.027 177.659 489.933 177.659 489.834V486.328H173.381V489.835C173.381 489.933 173.339 490.027 173.261 490.096L168.479 494.593V494.592ZM172.977 495.346H167.513C167.35 495.346 167.203 495.253 167.146 495.11C167.083 494.972 167.114 494.81 167.229 494.701L172.579 489.677V485.954C172.579 485.747 172.762 485.574 172.977 485.574H178.063C178.278 485.574 178.463 485.747 178.463 485.954V489.677L183.811 494.686C183.921 494.795 183.958 494.958 183.895 495.1C183.832 495.238 183.69 495.331 183.527 495.331L172.977 495.346ZM169.912 506.236H181.123V505.483H169.912V506.236Z" fill="white"/>
<path fill-rule="evenodd" clip-rule="evenodd" d="M157.907 506.236H165.114V505.482H157.907V506.236ZM185.926 506.236H193.133V505.482H185.926V506.236ZM268.989 511.292H293.974C293.974 513.74 291.858 515.73 289.244 515.73H273.718C271.104 515.73 268.989 513.739 268.989 511.292Z" fill="white"/>
<path fill-rule="evenodd" clip-rule="evenodd" d="M269.325 505.273V510.656C269.325 513.277 271.619 515.409 274.437 515.409H288.525C291.344 515.409 293.633 513.277 293.633 510.656V505.274H269.325V505.273ZM288.525 516.045H274.437C271.246 516.045 268.647 513.626 268.647 510.656V504.957C268.647 504.78 268.8 504.637 268.989 504.637H293.969C294.157 504.637 294.309 504.781 294.309 504.957V510.656C294.309 513.626 291.717 516.045 288.525 516.045ZM278.121 495.768H285.517C285.343 493.996 283.753 492.602 281.817 492.602C280.672 492.602 279.601 493.089 278.893 493.941C278.446 494.473 278.184 495.099 278.121 495.768ZM285.868 496.405H277.769C277.58 496.405 277.433 496.261 277.433 496.084C277.433 495.157 277.753 494.281 278.363 493.552C279.197 492.543 280.462 491.966 281.816 491.966C284.241 491.966 286.21 493.813 286.21 496.085C286.21 496.261 286.057 496.405 285.868 496.405Z" fill="white"/>
<path fill-rule="evenodd" clip-rule="evenodd" d="M290.26 504.847H289.582V492.263C289.582 490.353 287.918 488.801 285.871 488.801C283.824 488.801 282.155 490.353 282.155 492.264H281.483C281.483 490.002 283.451 488.166 285.871 488.166C288.291 488.166 290.259 490.003 290.259 492.263V504.847H290.26ZM279.454 501.788C279.27 501.788 279.118 501.646 279.118 501.474V498.937C279.118 498.765 279.27 498.621 279.454 498.621C279.643 498.621 279.79 498.765 279.79 498.937V501.474C279.79 501.646 279.643 501.788 279.454 501.788ZM281.48 501.788C281.292 501.788 281.145 501.646 281.145 501.474V498.937C281.145 498.765 281.292 498.621 281.481 498.621C281.665 498.621 281.817 498.765 281.817 498.937V501.474C281.817 501.646 281.665 501.788 281.481 501.788M284.18 501.788C283.996 501.788 283.844 501.646 283.844 501.474V498.937C283.844 498.765 283.996 498.621 284.18 498.621C284.369 498.621 284.516 498.765 284.516 498.937V501.474C284.516 501.646 284.369 501.788 284.18 501.788ZM77.37 500.511H81.936L79.652 497.831L77.37 500.511ZM82.807 501.295H76.497C76.335 501.295 76.193 501.21 76.12 501.073C76.052 500.94 76.073 500.777 76.172 500.659L79.327 496.96C79.406 496.866 79.527 496.812 79.652 496.812C79.778 496.812 79.899 496.866 79.983 496.96L83.133 500.659C83.233 500.777 83.253 500.94 83.185 501.073C83.117 501.21 82.97 501.295 82.807 501.295ZM77.369 503.752L79.652 506.432L81.936 503.752H77.369ZM79.652 507.446C79.526 507.446 79.406 507.397 79.327 507.303L76.172 503.604C76.072 503.486 76.052 503.323 76.12 503.19C76.193 503.053 76.335 502.969 76.498 502.969H82.807C82.97 502.969 83.117 503.053 83.185 503.19C83.253 503.323 83.232 503.486 83.132 503.604L79.983 507.303C79.899 507.397 79.777 507.446 79.652 507.446ZM57.434 507.987H71.648V496.221H57.434V507.987ZM72.068 508.771H57.019C56.789 508.771 56.599 508.593 56.599 508.381V495.827C56.599 495.61 56.789 495.433 57.019 495.433H72.068C72.298 495.433 72.488 495.611 72.488 495.826V508.381C72.488 508.594 72.298 508.771 72.068 508.771ZM52.421 511.913H86.701V492.3H52.421V511.913ZM87.116 512.697H52.001C51.771 512.697 51.581 512.519 51.581 512.302V491.902C51.581 491.686 51.771 491.513 52.001 491.513H87.116C87.347 491.513 87.536 491.686 87.536 491.902V512.302C87.536 512.519 87.347 512.696 87.116 512.696V512.697Z" fill="white"/>
<path fill-rule="evenodd" clip-rule="evenodd" d="M77.369 503.724L79.652 506.404L81.936 503.724H77.369ZM77.369 500.485H81.936L79.652 497.805L77.369 500.485ZM478.76 502.082L469.002 502.067V501.151L478.76 501.166V502.082ZM498.276 502.11L488.519 502.096V501.18L498.276 501.195V502.11ZM517.796 502.142L508.038 502.127V501.212L517.796 501.226V502.142ZM489.019 495.687L479.262 495.672V494.756L489.019 494.771V495.687ZM508.049 495.719L498.292 495.704V494.788L508.049 494.803V495.719ZM488.996 508.508L479.239 508.493V507.577L488.996 507.592V508.508ZM508.026 508.537L498.269 508.522V507.606L508.026 507.621V508.537Z" fill="white"/>
<path fill-rule="evenodd" clip-rule="evenodd" d="M479.711 516.278H478.734L478.787 487.889L479.763 487.894L479.711 516.278ZM488.981 516.29H488.004L488.057 487.901L489.033 487.906L488.981 516.29ZM498.74 516.307H497.764L497.817 487.917L498.793 487.923L498.74 516.307ZM508.5 516.321H507.524L507.576 487.932L508.553 487.937L508.5 516.321ZM389.593 506.891H407.361L396.364 494.648H378.712L389.593 506.891ZM408.269 507.679H389.394C389.273 507.679 389.152 507.63 389.074 507.536L377.809 494.869L366.551 507.536L365.905 507.034L377.489 494.002C377.568 493.908 377.689 493.859 377.809 493.859H396.559C396.684 493.859 396.805 493.908 396.884 493.997L408.589 507.034C408.694 507.147 408.72 507.315 408.647 507.453C408.578 507.59 408.431 507.679 408.269 507.679ZM408.554 510.353H389.2C388.969 510.353 388.78 510.175 388.78 509.958C388.78 509.741 388.969 509.564 389.2 509.564H408.553C408.783 509.564 408.973 509.742 408.973 509.958C408.973 510.175 408.783 510.353 408.553 510.353M123.584 437.524H141.351L130.355 425.281H112.703L123.584 437.524ZM142.26 438.312H123.39C123.264 438.312 123.143 438.264 123.064 438.17L111.8 425.502L100.541 438.17L99.896 437.667L111.48 424.635C111.559 424.541 111.68 424.493 111.8 424.493H130.55C130.675 424.493 130.796 424.541 130.875 424.63L142.58 437.663C142.685 437.781 142.71 437.948 142.637 438.086C142.569 438.224 142.422 438.312 142.26 438.312ZM142.545 440.983H123.192C122.961 440.983 122.772 440.805 122.772 440.59C122.772 440.372 122.961 440.195 123.192 440.195H142.545C142.775 440.195 142.965 440.372 142.965 440.589C142.965 440.806 142.775 440.983 142.545 440.983ZM326.008 448.512H341.219V433.485H326.009L326.008 448.512ZM341.624 449.261H325.609C325.389 449.261 325.21 449.092 325.21 448.891V433.111C325.21 432.905 325.389 432.736 325.61 432.736H341.624C341.844 432.736 342.022 432.905 342.022 433.111V448.892C342.022 449.093 341.844 449.261 341.624 449.261Z" fill="white"/>
<path fill-rule="evenodd" clip-rule="evenodd" d="M353.632 449.263H341.623V448.509H353.233V433.487H341.623V432.734H353.633C353.853 432.734 354.031 432.906 354.031 433.108V448.889C354.031 449.095 353.853 449.263 353.632 449.263ZM325.61 449.263H313.6C313.38 449.263 313.196 449.095 313.196 448.889V433.108C313.196 432.906 313.379 432.734 313.6 432.734H325.61V433.487H313.999V448.509H325.609V449.263H325.61ZM328.013 445.887H339.225V439.125H328.013V445.887ZM326.576 425.223H331.074L340.658 425.214L335.877 420.727C335.797 420.658 335.756 420.564 335.756 420.466V416.96H331.478V420.466C331.478 420.564 331.436 420.658 331.358 420.727L326.576 425.224V425.223ZM331.074 425.977H325.61C325.447 425.977 325.3 425.884 325.242 425.741C325.179 425.603 325.211 425.441 325.326 425.333L330.675 420.309V416.585C330.675 416.378 330.859 416.211 331.074 416.211H336.16C336.375 416.211 336.559 416.378 336.559 416.585V420.309L341.908 425.322C342.018 425.431 342.054 425.588 341.992 425.731C341.929 425.869 341.787 425.962 341.624 425.962L331.074 425.977ZM328.008 436.869H339.22V436.116H328.008V436.869Z" fill="white"/>
<path fill-rule="evenodd" clip-rule="evenodd" d="M315.999 436.869H323.205V436.116H315.999V436.869ZM344.022 436.869H351.229V436.116H344.022V436.869ZM222.836 432.431C223.697 432.431 224.4 432.983 224.4 433.657C224.4 434.333 223.697 434.884 222.836 434.884C221.97 434.884 221.272 434.332 221.272 433.658C221.272 432.983 221.97 432.432 222.836 432.432" fill="white"/>
<path fill-rule="evenodd" clip-rule="evenodd" d="M209.158 444.69H226.348V420.783H209.158V444.69V444.69ZM226.741 445.306H208.77C208.555 445.306 208.382 445.168 208.382 444.996V420.473C208.382 420.305 208.555 420.167 208.77 420.167H226.742C226.958 420.167 227.136 420.305 227.136 420.473V444.997C227.136 445.168 226.958 445.305 226.742 445.305L226.741 445.306ZM237.68 436.111H238.462V422.625H237.68V436.111ZM229.796 436.111H230.578V422.625H229.796V436.111Z" fill="white"/>
<path fill-rule="evenodd" clip-rule="evenodd" d="M230.652 429.673H246.278V429.062H230.652V429.673Z" fill="white"/>
<path fill-rule="evenodd" clip-rule="evenodd" d="M246.277 436.109H230.65V435.498H245.887V423.234H230.65V422.623H246.276C246.491 422.623 246.669 422.755 246.669 422.928V435.803C246.669 435.97 246.491 436.108 246.276 436.108M2.84701 441.923H27.83C27.83 444.371 25.715 446.36 23.101 446.36H7.57601C4.96201 446.36 2.84701 444.371 2.84701 441.923Z" fill="white"/>
<path fill-rule="evenodd" clip-rule="evenodd" d="M3.183 435.903V441.287C3.183 443.908 5.47601 446.04 8.29501 446.04H22.383C25.202 446.04 27.49 443.907 27.49 441.287V435.904H3.183V435.903ZM22.383 446.675H8.29501C5.10401 446.675 2.505 444.262 2.505 441.287V435.588C2.505 435.411 2.658 435.268 2.847 435.268H27.826C28.015 435.268 28.167 435.411 28.167 435.588V441.287C28.167 444.262 25.574 446.675 22.383 446.675ZM11.976 426.402H19.372C19.198 424.628 17.608 423.235 15.672 423.235C14.527 423.235 13.456 423.722 12.748 424.569C12.301 425.107 12.039 425.732 11.976 426.402ZM19.723 427.037H11.624C11.435 427.037 11.288 426.895 11.288 426.717C11.288 425.791 11.608 424.914 12.218 424.186C13.052 423.176 14.317 422.599 15.671 422.599C18.096 422.599 20.065 424.447 20.065 426.718C20.065 426.895 19.912 427.037 19.723 427.037Z" fill="white"/>
<path fill-rule="evenodd" clip-rule="evenodd" d="M24.114 435.478H23.437V422.894C23.437 420.983 21.773 419.432 19.726 419.432C17.679 419.432 16.01 420.983 16.01 422.895H15.338C15.338 420.634 17.306 418.796 19.726 418.796C22.146 418.796 24.114 420.634 24.114 422.894V435.478ZM13.311 432.419C13.128 432.419 12.975 432.276 12.975 432.104V429.567C12.975 429.395 13.128 429.253 13.311 429.253C13.501 429.253 13.647 429.395 13.647 429.567V432.104C13.647 432.276 13.5 432.419 13.311 432.419ZM15.338 432.419C15.149 432.419 15.002 432.276 15.002 432.104V429.567C15.002 429.395 15.149 429.253 15.338 429.253C15.522 429.253 15.674 429.395 15.674 429.567V432.104C15.674 432.276 15.522 432.419 15.338 432.419ZM18.037 432.419C17.854 432.419 17.701 432.276 17.701 432.104V429.567C17.701 429.395 17.854 429.253 18.037 429.253C18.227 429.253 18.373 429.395 18.373 429.567V432.104C18.373 432.276 18.226 432.419 18.037 432.419ZM447.518 431.144H452.084L449.801 428.466L447.518 431.144ZM452.955 431.928H446.646C446.484 431.928 446.342 431.844 446.268 431.706C446.2 431.573 446.221 431.41 446.321 431.292L449.475 427.593C449.555 427.5 449.675 427.446 449.801 427.446C449.927 427.446 450.048 427.5 450.131 427.593L453.281 431.292C453.381 431.41 453.401 431.573 453.333 431.706C453.265 431.844 453.118 431.928 452.955 431.928ZM447.518 434.385L449.801 437.065L452.084 434.385H447.518ZM449.801 438.084C449.675 438.084 449.554 438.03 449.475 437.936L446.321 434.238C446.221 434.119 446.201 433.957 446.268 433.824C446.342 433.686 446.484 433.602 446.646 433.602H452.956C453.118 433.602 453.266 433.687 453.333 433.824C453.402 433.957 453.381 434.119 453.281 434.238L450.131 437.936C450.048 438.03 449.927 438.084 449.801 438.084ZM427.582 438.621H441.796V426.85H427.582V438.621ZM442.216 439.404H427.168C426.937 439.404 426.748 439.226 426.748 439.016V426.461C426.748 426.244 426.937 426.067 427.168 426.067H442.216C442.447 426.067 442.636 426.244 442.636 426.461V439.016C442.636 439.227 442.447 439.404 442.216 439.404ZM422.57 442.546H456.85V422.935H422.57V442.546ZM457.265 443.33H422.15C421.919 443.33 421.73 443.152 421.73 442.936V422.536C421.73 422.319 421.919 422.146 422.15 422.146H457.265C457.495 422.146 457.685 422.319 457.685 422.536V442.936C457.685 443.153 457.495 443.33 457.265 443.33Z" fill="white"/>
<path fill-rule="evenodd" clip-rule="evenodd" d="M447.518 434.358L449.801 437.037L452.084 434.358H447.518ZM447.518 431.116H452.084L449.801 428.437L447.518 431.116Z" fill="white"/>
</g>
</svg>
