<svg width="49" height="49" viewBox="0 0 49 49" fill="none" xmlns="http://www.w3.org/2000/svg">
<path fill-rule="evenodd" clip-rule="evenodd" d="M32.844 42.1889H43.261V25.0039H32.844V42.1889Z" fill="#D5DBF1"/>
<path d="M32.8447 25.0039H43.2617V42.1889H32.8447" stroke="#070441" stroke-linejoin="round"/>
<path fill-rule="evenodd" clip-rule="evenodd" d="M6.05908 42.1889H16.4771V25.0039H6.05908V42.1889Z" fill="#D5DBF1"/>
<path d="M16.4776 25.0039H6.05957V42.1889H16.4776" stroke="#070441" stroke-linejoin="round"/>
<path fill-rule="evenodd" clip-rule="evenodd" d="M16.4775 16.8205L22.0645 11.2265V7.00049H27.2565V11.2265L32.8445 16.8045L22.0645 16.8205H16.4775Z" fill="white"/>
<path fill-rule="evenodd" clip-rule="evenodd" d="M16.4775 16.8205L22.0645 11.2265V7.00049H27.2565V11.2265L32.8445 16.8045L22.0645 16.8205H16.4775Z" stroke="#070441" stroke-linejoin="round"/>
<path d="M14.0227 28.6865H8.51465" stroke="#070441"/>
<path d="M35.2998 28.6865H40.8068" stroke="#070441"/>
<path fill-rule="evenodd" clip-rule="evenodd" d="M16.478 25.0039V42.1889H32.844V32.1219V25.0039H16.478Z" fill="#D5DBF1"/>
<path fill-rule="evenodd" clip-rule="evenodd" d="M16.4775 25.0039H32.8445V32.1219V42.1889H16.4775V25.0039Z" stroke="#070441" stroke-linejoin="round"/>
<path fill-rule="evenodd" clip-rule="evenodd" d="M18.9331 38.9158H30.3901V31.5508H18.9331V38.9158Z" fill="#070441"/>
<path d="M18.9326 28.6865H30.3896" stroke="#070441"/>
</svg>
