<svg width="48" height="48" viewBox="0 0 48 48" fill="none" xmlns="http://www.w3.org/2000/svg">
<path fill-rule="evenodd" clip-rule="evenodd" d="M10.9789 41.2868L19.1686 33.2178L15.067 29.0088L6.8783 37.0778L10.9789 41.2868Z" stroke="#10103F" stroke-width="0.6" stroke-linejoin="round"/>
<path fill-rule="evenodd" clip-rule="evenodd" d="M21.2135 22.7344C20.8929 21.4854 20.889 20.2024 21.0381 18.9274C21.4269 15.6034 22.668 12.6234 24.5874 9.93638C25.1242 9.1844 25.738 8.49038 26.3342 7.78538C26.6567 7.4024 26.8389 7.41236 27.1876 7.77038C29.3934 10.0314 31.5972 12.2954 33.8019 14.5584C35.9775 16.7914 38.154 19.0254 40.3295 21.2584C40.7446 21.6844 40.7446 21.8484 40.3227 22.2544C37.5441 24.9354 34.3125 26.7384 30.5538 27.4764C28.9452 27.7924 27.327 27.8474 25.7243 27.4514C21.6811 26.0574 21.2135 22.7344 21.2135 22.7344Z" stroke="#10103F" stroke-width="0.6" stroke-linejoin="round"/>
<path fill-rule="evenodd" clip-rule="evenodd" d="M18.4153 32.4208L23.9803 26.7538C22.0015 26.0327 21.6176 24.1978 21.6176 24.1978L15.9591 29.9687L18.4153 32.4208Z" fill="#15123F"/>
<path fill-rule="evenodd" clip-rule="evenodd" d="M18.4153 32.4208L23.9803 26.7538C22.0015 26.0327 21.6176 24.1978 21.6176 24.1978L15.9591 29.9687L18.4153 32.4208Z" stroke="#10103F" stroke-width="0.6" stroke-linejoin="round"/>
</svg>
