<svg width="27" height="28" viewBox="0 0 27 28" fill="none" xmlns="http://www.w3.org/2000/svg">
<path d="M17.0316 10.4828L19.0299 10.4674C19.1213 10.4667 19.2086 10.4297 19.2727 10.3646C19.3369 10.2995 19.3725 10.2116 19.3718 10.1202L19.3568 8.16783C19.3561 8.07645 19.3191 7.98909 19.254 7.92498C19.1889 7.86086 19.101 7.82523 19.0096 7.82594L17.0113 7.8413C16.9656 7.84005 16.9201 7.84822 16.8777 7.86529C16.8353 7.88236 16.7969 7.90798 16.7648 7.94055C16.7327 7.97312 16.7077 8.01194 16.6913 8.05459C16.6749 8.09725 16.6674 8.14283 16.6694 8.18849L16.6846 10.1753C16.6912 10.2616 16.7311 10.3419 16.7958 10.3993C16.8606 10.4567 16.9451 10.4866 17.0316 10.4828Z" fill="white"/>
<path d="M17.463 12.7782C17.5686 13.1519 17.6256 13.5375 17.6327 13.9258C17.637 14.493 17.5296 15.0555 17.3166 15.5812C17.1036 16.107 16.789 16.5856 16.391 16.9898C15.993 17.3939 15.5193 17.7158 14.9969 17.9369C14.4745 18.158 13.9137 18.274 13.3465 18.2784C12.7793 18.2827 12.2167 18.1753 11.691 17.9623C11.1653 17.7493 10.6867 17.4347 10.2825 17.0367C9.8783 16.6387 9.55647 16.165 9.33537 15.6426C9.11427 15.1202 8.99822 14.5594 8.99386 13.9922C8.98963 13.6036 9.04081 13.2163 9.14586 12.8422C9.14471 12.6928 9.23546 12.5428 9.29184 12.4045L6.99428 12.4222L7.04402 18.8898C7.04711 19.293 7.20948 19.6787 7.49574 19.9627C7.78199 20.2467 8.16891 20.4061 8.57216 20.406L18.2678 20.3314C18.671 20.3253 19.0555 20.16 19.3373 19.8716C19.6192 19.5832 19.7756 19.1951 19.7725 18.7919L19.7225 12.2898L17.31 12.3084C17.3685 12.4458 17.4156 12.5948 17.463 12.7782Z" fill="white"/>
<path d="M13.3346 16.7386C13.6997 16.7358 14.0607 16.6611 14.3969 16.5188C14.7331 16.3765 15.038 16.1694 15.2941 15.9092C15.5503 15.6491 15.7527 15.3411 15.8898 15.0027C16.027 14.6643 16.0961 14.3023 16.0933 13.9372C16.0918 13.4619 15.9654 12.9954 15.7267 12.5844C15.6792 12.4927 15.6248 12.4048 15.5639 12.3214C15.2974 11.9627 14.9491 11.6728 14.5479 11.4761C14.1467 11.2793 13.7042 11.1813 13.2575 11.1903C12.8101 11.1853 12.3682 11.2888 11.9697 11.492C11.5711 11.6951 11.2276 11.9918 10.9688 12.3567C10.9015 12.4381 10.8443 12.5272 10.7985 12.6223C10.5941 13.0443 10.5027 13.5121 10.5332 13.9799C10.536 14.345 10.6107 14.706 10.753 15.0422C10.8953 15.3784 11.1024 15.6833 11.3626 15.9395C11.6227 16.1956 11.9307 16.3981 12.2691 16.5352C12.6075 16.6723 12.9695 16.7414 13.3346 16.7386Z" fill="white"/>
<path d="M13.2116 0.747032C10.5987 0.767127 8.05044 1.56158 5.88908 3.02992C3.72771 4.49827 2.0503 6.57456 1.06896 8.99624C0.0876191 11.4179 -0.153573 14.0762 0.375883 16.635C0.905339 19.1937 2.18166 21.538 4.04346 23.3714C5.90525 25.2048 8.26889 26.4449 10.8355 26.9349C13.4021 27.4249 16.0563 27.1429 18.4626 26.1244C20.8689 25.106 22.9192 23.3968 24.3541 21.2131C25.789 19.0294 26.5442 16.4693 26.5241 13.8564C26.4972 10.3526 25.0795 7.00307 22.5829 4.54459C20.0863 2.08611 16.7153 0.720086 13.2116 0.747032ZM21.2699 19.3193C21.2725 19.6467 21.2105 19.9714 21.0875 20.2748C20.9646 20.5782 20.7831 20.8544 20.5534 21.0877C20.3237 21.3209 20.0503 21.5067 19.7488 21.6343C19.4473 21.7619 19.1236 21.8288 18.7963 21.8314L7.9518 21.9148C7.62498 21.9173 7.30088 21.8552 6.99811 21.7321C6.69534 21.609 6.41987 21.4273 6.18752 21.1975C5.95517 20.9676 5.77053 20.6941 5.64418 20.3927C5.51783 20.0912 5.45227 19.7678 5.45127 19.441L5.36787 8.59653C5.36385 8.26972 5.42442 7.94533 5.54612 7.642C5.66781 7.33867 5.84824 7.06236 6.07702 6.82896C6.30581 6.59555 6.57845 6.40964 6.87929 6.2819C7.18013 6.15416 7.50323 6.08711 7.83006 6.0846L18.6745 6.0012C19.0019 5.99868 19.3265 6.06067 19.63 6.18362C19.9334 6.30657 20.2096 6.48808 20.4429 6.71778C20.6761 6.94748 20.8619 7.22088 20.9895 7.52236C21.1171 7.82385 21.184 8.14751 21.1865 8.47488L21.2699 19.3193Z" fill="white"/>
</svg>
