<svg width="25" height="24" viewBox="0 0 25 24" fill="none" xmlns="http://www.w3.org/2000/svg">
<path fill-rule="evenodd" clip-rule="evenodd" d="M22.62 4C23.5036 4 24.22 4.71634 24.22 5.6V18.4C24.22 19.2837 23.5036 20 22.62 20H1.81997C0.936315 20 0.219971 19.2837 0.219971 18.4V5.6C0.219971 4.71634 0.936315 4 1.81997 4H22.62ZM23.0944 9.6H1.34477L1.34497 18.0837C1.34497 18.494 1.6538 18.8321 2.05167 18.8783L2.14497 18.8837H22.295C22.7052 18.8837 23.0434 18.5749 23.0896 18.177L23.095 18.0837L23.0944 9.6ZM20.22 13.6744C20.6618 13.6744 21.02 14.0326 21.02 14.4744V15.2744C21.02 15.7162 20.6618 16.0744 20.22 16.0744H17.82C17.3781 16.0744 17.02 15.7162 17.02 15.2744V14.4744C17.02 14.0326 17.3781 13.6744 17.82 13.6744H20.22ZM13.82 14.0465C14.2618 14.0465 14.62 14.4047 14.62 14.8465C14.62 15.2883 14.2618 15.6465 13.82 15.6465H4.21997C3.77814 15.6465 3.41997 15.2883 3.41997 14.8465C3.41997 14.4047 3.77814 14.0465 4.21997 14.0465H13.82ZM22.295 5.11628H2.14497C1.7347 5.11628 1.39656 5.42511 1.35035 5.82298L1.34497 5.91628L1.34477 7.2H23.0944L23.095 5.91628C23.095 5.47445 22.7368 5.11628 22.295 5.11628Z" fill="#070441"/>
</svg>
