<svg width="24" height="24" viewBox="0 0 24 24" fill="none" xmlns="http://www.w3.org/2000/svg">
<path fill-rule="evenodd" clip-rule="evenodd" d="M17.873 0.5C18.257 0.5 18.569 0.812 18.569 1.196V2.474H22.582C23.362 2.474 24 3.111 24 3.894V21.48C23.9995 21.8559 23.8499 22.2163 23.5841 22.4821C23.3183 22.7479 22.9579 22.8975 22.582 22.898H1.41902C1.04276 22.898 0.681883 22.7487 0.415638 22.4828C0.149394 22.2169 -0.000446617 21.8563 -0.000976562 21.48V3.893C-0.000711468 3.51657 0.149012 3.15564 0.415285 2.88955C0.681558 2.62347 1.04259 2.474 1.41902 2.474H5.43202V1.196C5.43202 1.10467 5.45001 1.01423 5.48497 0.929844C5.51992 0.845462 5.57115 0.76879 5.63573 0.704207C5.70031 0.639624 5.77699 0.588394 5.86137 0.553442C5.94575 0.51849 6.03619 0.5005 6.12752 0.5005C6.21886 0.5005 6.3093 0.51849 6.39368 0.553442C6.47806 0.588394 6.55473 0.639624 6.61932 0.704207C6.6839 0.76879 6.73513 0.845462 6.77008 0.929844C6.80503 1.01423 6.82302 1.10467 6.82302 1.196V2.474H17.178V1.196C17.178 0.812 17.488 0.5 17.873 0.5ZM22.609 8.883H1.41002L1.39002 21.481L22.58 21.508C22.594 21.508 22.608 21.495 22.608 21.481L22.609 8.883ZM15.177 12.263C15.241 12.1958 15.3179 12.142 15.403 12.105C15.4881 12.0679 15.5797 12.0482 15.6725 12.0471C15.7654 12.0459 15.8575 12.0634 15.9434 12.0984C16.0294 12.1334 16.1075 12.1852 16.1732 12.2509C16.2388 12.3165 16.2907 12.3946 16.3257 12.4806C16.3607 12.5666 16.3781 12.6587 16.377 12.7515C16.3758 12.8443 16.3562 12.936 16.3191 13.0211C16.282 13.1062 16.2282 13.183 16.161 13.247L11.269 18.139C11.1385 18.2694 10.9615 18.3427 10.777 18.3427C10.5925 18.3427 10.4155 18.2694 10.285 18.139L7.83902 15.693C7.70867 15.5625 7.63549 15.3856 7.63558 15.2011C7.63568 15.0167 7.70904 14.8399 7.83952 14.7095C7.97001 14.5791 8.14694 14.506 8.33138 14.5061C8.51582 14.5062 8.69267 14.5795 8.82302 14.71L10.777 16.664L15.177 12.263ZM1.42002 3.866L1.41402 7.492H22.61V3.893L18.57 3.888V5.58C18.57 5.76446 18.4967 5.94136 18.3663 6.07179C18.2359 6.20222 18.059 6.2755 17.8745 6.2755C17.6901 6.2755 17.5132 6.20222 17.3827 6.07179C17.2523 5.94136 17.179 5.76446 17.179 5.58V3.886L6.82302 3.873V5.58C6.82302 5.67133 6.80503 5.76177 6.77008 5.84616C6.73513 5.93054 6.6839 6.00721 6.61932 6.07179C6.55473 6.13638 6.47806 6.18761 6.39368 6.22256C6.3093 6.25751 6.21886 6.2755 6.12752 6.2755C6.03619 6.2755 5.94575 6.25751 5.86137 6.22256C5.77699 6.18761 5.70031 6.13638 5.63573 6.07179C5.57115 6.00721 5.51992 5.93054 5.48497 5.84616C5.45001 5.76177 5.43202 5.67133 5.43202 5.58V3.871L1.42002 3.866Z" fill="#070441"/>
</svg>
