<svg width="49" height="49" viewBox="0 0 49 49" fill="none" xmlns="http://www.w3.org/2000/svg">
<path fill-rule="evenodd" clip-rule="evenodd" d="M15.9405 28.3076H40.7655V36.0296C40.7655 39.8206 37.6675 42.8936 33.8445 42.8936H15.9405C12.1185 42.8936 9.01953 39.8206 9.01953 36.0296V28.3076H11.7935H15.9405Z" fill="#D5DBF1"/>
<path fill-rule="evenodd" clip-rule="evenodd" d="M15.9405 28.3076H40.7655V36.0296C40.7655 39.8206 37.6675 42.8936 33.8445 42.8936H15.9405C12.1185 42.8936 9.01953 39.8206 9.01953 36.0296V28.3076H11.7935H15.9405Z" stroke="#070441" stroke-linejoin="round"/>
<path fill-rule="evenodd" clip-rule="evenodd" d="M9.01953 36.8877H40.7655C40.7655 40.2037 38.0765 42.8937 34.7595 42.8937H15.0255C11.7085 42.8937 9.01953 40.2037 9.01953 36.8877Z" fill="#070441"/>
<path fill-rule="evenodd" clip-rule="evenodd" d="M27.5176 16.2959H30.4696C30.4696 13.4519 28.1646 11.1479 25.3216 11.1479C23.6736 11.1479 22.2066 11.9219 21.2646 13.1269C20.5806 14.0009 20.1736 15.1009 20.1736 16.2959H23.2496H27.5176Z" fill="white"/>
<path fill-rule="evenodd" clip-rule="evenodd" d="M27.5176 16.2959H30.4696C30.4696 13.4519 28.1646 11.1479 25.3216 11.1479C23.6736 11.1479 22.2066 11.9219 21.2646 13.1269C20.5806 14.0009 20.1736 15.1009 20.1736 16.2959H23.2496H27.5176Z" stroke="#070441" stroke-linejoin="round"/>
<path d="M35.6173 28.1605V11.1175C35.6173 8.29149 33.3123 6.00049 30.4703 6.00049C27.6273 6.00049 25.3213 8.29149 25.3213 11.1175" stroke="#070441" stroke-linejoin="round"/>
<path d="M22.3184 20.1567V23.5897" stroke="#070441" stroke-linecap="round"/>
<path d="M25.2139 20.1567V23.5897" stroke="#070441" stroke-linecap="round"/>
<path d="M28.0674 20.1567V23.5897" stroke="#070441" stroke-linecap="round"/>
</svg>
