<svg width="49" height="48" viewBox="0 0 49 48" fill="none" xmlns="http://www.w3.org/2000/svg">
<path d="M18.7584 28.6207V14.4717H9.45808L6.01697 22.8287V28.6207" stroke="#10103F" stroke-width="0.6" stroke-linejoin="round"/>
<path fill-rule="evenodd" clip-rule="evenodd" d="M15.6818 23.4225V18.6235H11.1427L9.16589 23.4225H15.6818Z" stroke="#10103F" stroke-width="0.6" stroke-linejoin="round"/>
<path fill-rule="evenodd" clip-rule="evenodd" d="M27.3991 10.5L21.5409 13.396V22.332L27.6184 25.559H33.0382L43.5096 22.414V13.562L32.891 10.5H27.3991Z" fill="#10103F"/>
<path fill-rule="evenodd" clip-rule="evenodd" d="M21.5403 13.396V22.332L27.6177 25.559H33.0376L43.509 22.415V13.562L32.8905 10.5H27.3995L21.5403 13.396Z" stroke="#10103F" stroke-width="0.6" stroke-linejoin="round"/>
<path d="M24.1033 28.3723V23.6562" stroke="#10103F" stroke-width="0.6" stroke-linejoin="round"/>
<path d="M38.163 28.372V21.5869" stroke="#10103F" stroke-width="0.6" stroke-linejoin="round"/>
<path fill-rule="evenodd" clip-rule="evenodd" d="M18.4124 34.2796C18.4124 36.4496 16.6977 38.2086 14.5835 38.2086C12.4694 38.2086 10.7566 36.4496 10.7566 34.2796C10.7566 32.1096 12.4694 30.3506 14.5835 30.3506C16.6977 30.3506 18.4124 32.1096 18.4124 34.2796Z" stroke="#10103F" stroke-width="0.6" stroke-linejoin="round"/>
<path fill-rule="evenodd" clip-rule="evenodd" d="M39.6708 34.2796C39.6708 36.4496 37.9561 38.2086 35.8419 38.2086C33.7278 38.2086 32.015 36.4496 32.015 34.2796C32.015 32.1096 33.7278 30.3506 35.8419 30.3506C37.9561 30.3506 39.6708 32.1096 39.6708 34.2796Z" stroke="#10103F" stroke-width="0.6" stroke-linejoin="round"/>
<path d="M17.8705 31.9058H32.8995" stroke="#10103F" stroke-width="0.6" stroke-linejoin="round"/>
<path d="M39.1171 31.9059H44.6763V28.4019H5.96777V31.9059H11.5893" stroke="#10103F" stroke-width="0.6" stroke-linejoin="round"/>
</svg>
