<svg width="26" height="45" viewBox="0 0 26 45" fill="none" xmlns="http://www.w3.org/2000/svg">
<path d="M4 29.8L5.28571 25.4H7V31.8H5.88571V27.2H5.8L4.42857 31.8H3.48571L2.2 27.3H2.11429V31.8H1V25.4H2.71429L4 29.8ZM9.74286 29.1V30.6H12.7429V31.8H8.54286V25.4H12.6571V26.6H9.74286V27.9H12.4857V29.1H9.74286ZM17.6286 29.7V25.4H18.7429V31.8H17.5429L15.2286 27.5V31.8H14.0286V25.4H15.2286L17.6286 29.7ZM23.8 25.4H25V29.4C25 31.1333 24.2 32 22.6 32C21.0571 32 20.2857 31.1333 20.2857 29.4V25.4H21.4857V29.4C21.4857 30.3333 21.8571 30.8 22.6 30.8C23.4 30.8 23.8 30.3333 23.8 29.4V25.4ZM5.54286 11.7V10H20.1143V11.7H5.54286ZM5.54286 16.3V14.5H20.1143V16.3H5.54286ZM5.54286 20.8V19.1H20.1143V20.8H5.54286Z" fill="#070441"/>
</svg>
