<svg width="49" height="48" viewBox="0 0 49 48" fill="none" xmlns="http://www.w3.org/2000/svg">
<path fill-rule="evenodd" clip-rule="evenodd" d="M17.6874 15.4833L13.9924 19.1783C13.8684 19.3013 13.7044 19.3703 13.5304 19.3703C13.3554 19.3703 13.1914 19.3013 13.0684 19.1783L10.9974 17.2173C10.7424 16.9633 10.7424 16.5483 10.9974 16.2953L11.4584 15.8333L14.2314 13.0613L14.6934 12.5993C14.9404 12.3523 15.3704 12.3523 15.6174 12.5993L17.6874 14.5603C17.8114 14.6833 17.8784 14.8473 17.8784 15.0223C17.8784 15.1963 17.8114 15.3603 17.6874 15.4833Z" fill="white"/>
<path fill-rule="evenodd" clip-rule="evenodd" d="M27.08 20.2979L22.596 16.0269L14.489 23.8399L14.975 26.4089L16.932 25.9469L17.737 28.0589C17.737 28.0589 18.938 26.8679 19.472 26.7619C20.004 26.6549 21.519 26.1299 22.307 25.3269C23.094 24.5249 27.08 20.2979 27.08 20.2979Z" fill="white"/>
<path fill-rule="evenodd" clip-rule="evenodd" d="M27.08 20.2979L22.596 16.0269L14.489 23.8399L14.975 26.4089L16.932 25.9469L17.737 28.0589C17.737 28.0589 18.938 26.8679 19.472 26.7619C20.004 26.6549 21.519 26.1299 22.307 25.3269C23.094 24.5249 27.08 20.2979 27.08 20.2979Z" stroke="#10103F" stroke-linejoin="round"/>
<path fill-rule="evenodd" clip-rule="evenodd" d="M29.8993 23.2588L42.3723 35.3488L38.7233 38.8658L35.2813 39.6778L34.7513 36.4278L31.3093 37.2388L30.7813 33.9878L27.3393 34.8008L26.8093 31.5488L22.6753 32.2318L24.3723 28.8398L29.8993 23.2588Z" fill="white"/>
<path fill-rule="evenodd" clip-rule="evenodd" d="M29.8993 23.2588L42.3723 35.3488L38.7233 38.8658L35.2813 39.6778L34.7513 36.4278L31.3093 37.2388L30.7813 33.9878L27.3393 34.8008L26.8093 31.5488L22.6753 32.2318L24.3723 28.8398L29.8993 23.2588Z" stroke="#10103F" stroke-linejoin="round"/>
<path fill-rule="evenodd" clip-rule="evenodd" d="M13.7257 41.6072C13.7257 41.6072 21.4097 33.5642 22.3287 32.6482C23.2447 31.7312 23.7627 30.1762 23.7627 30.1762C23.9827 29.5162 24.5667 28.5722 25.0587 28.0802L35.4617 17.7732L37.2977 19.6092L36.7377 20.1702C36.2457 20.6632 36.2457 21.4692 36.7377 21.9612L38.6177 23.8422C39.1097 24.3352 39.9157 24.3352 40.4087 23.8422L44.1257 20.1262C44.6197 19.6332 44.6197 18.8272 44.1257 18.3352L42.2447 16.4532C41.7517 15.9602 40.9457 15.9602 40.4537 16.4532L40.3127 16.5922L38.4777 14.7572L35.7207 12.0062C33.2207 9.53221 31.0157 8.76221 29.0947 8.76221C26.3347 8.76221 24.9797 11.9442 25.4787 12.0402C26.3347 12.2042 27.5597 9.85321 32.0947 14.3882C32.2997 14.5932 32.4997 14.8092 32.7077 15.0192L22.3067 25.3272C21.8147 25.8192 20.8707 26.4032 20.2087 26.6242C20.2087 26.6242 18.6557 27.1402 17.7377 28.0582C16.8187 28.9762 9.0647 37.0252 9.0647 37.0252L13.7257 41.6072Z" fill="#D5DBF1"/>
<path fill-rule="evenodd" clip-rule="evenodd" d="M13.7257 41.6072C13.7257 41.6072 21.4097 33.5642 22.3287 32.6482C23.2447 31.7312 23.7627 30.1762 23.7627 30.1762C23.9827 29.5162 24.5667 28.5722 25.0587 28.0802L35.4617 17.7732L37.2977 19.6092L36.7377 20.1702C36.2457 20.6632 36.2457 21.4692 36.7377 21.9612L38.6177 23.8422C39.1097 24.3352 39.9157 24.3352 40.4087 23.8422L44.1257 20.1262C44.6197 19.6332 44.6197 18.8272 44.1257 18.3352L42.2447 16.4532C41.7517 15.9602 40.9457 15.9602 40.4537 16.4532L40.3127 16.5922L38.4777 14.7572L35.7207 12.0062C33.2207 9.53221 31.0157 8.76221 29.0947 8.76221C26.3347 8.76221 24.9797 11.9442 25.4787 12.0402C26.3347 12.2042 27.5597 9.85321 32.0947 14.3882C32.2997 14.5932 32.4997 14.8092 32.7077 15.0192L22.3067 25.3272C21.8147 25.8192 20.8707 26.4032 20.2087 26.6242C20.2087 26.6242 18.6557 27.1402 17.7377 28.0582C16.8187 28.9762 9.0647 37.0252 9.0647 37.0252L13.7257 41.6072Z" stroke="#10103F" stroke-linejoin="round"/>
<path fill-rule="evenodd" clip-rule="evenodd" d="M17.6875 15.4835L13.9925 19.1785C13.8685 19.3015 13.7045 19.3705 13.5305 19.3705C13.3555 19.3705 13.1915 19.3015 13.0685 19.1785L10.9975 17.2175C10.7425 16.9635 10.7425 16.5485 10.9975 16.2955L11.4585 15.8335L14.2315 13.0615L14.6935 12.5995C14.9405 12.3525 15.3705 12.3525 15.6175 12.5995L17.6875 14.5605C17.8115 14.6835 17.8785 14.8475 17.8785 15.0225C17.8785 15.1965 17.8115 15.3605 17.6875 15.4835ZM21.9265 14.4565L15.3305 7.85951C14.8505 7.37951 14.0165 7.37951 13.5385 7.85951L12.6425 8.75451L7.26651 14.1295L6.37151 15.0255C5.87551 15.5195 5.87551 16.3235 6.37151 16.8175L12.9675 23.4145C13.2075 23.6525 13.5255 23.7855 13.8635 23.7855C14.2025 23.7855 14.5195 23.6525 14.7595 23.4145L21.9265 16.2485C22.1665 16.0085 22.2975 15.6895 22.2975 15.3525C22.2975 15.0145 22.1665 14.6955 21.9265 14.4565Z" fill="#15123F"/>
<path d="M17.6875 15.4835L17.3354 15.1285L17.334 15.1299L17.6875 15.4835ZM13.9925 19.1785L14.3446 19.5335L14.3461 19.5321L13.9925 19.1785ZM13.0685 19.1785L13.4222 18.8248L13.4123 18.8154L13.0685 19.1785ZM10.9975 17.2175L10.6445 17.5719L10.6537 17.5806L10.9975 17.2175ZM10.9975 16.2955L11.3497 16.6504L11.3514 16.6487L10.9975 16.2955ZM15.6175 12.5995L15.2638 12.9532L15.2736 12.9625L15.6175 12.5995ZM17.6875 14.5605L18.0397 14.2054L18.0314 14.1975L17.6875 14.5605ZM21.9265 14.4565L21.5729 14.81L21.5737 14.8108L21.9265 14.4565ZM13.5385 7.85951L13.8919 8.21326L13.8928 8.21232L13.5385 7.85951ZM6.37151 15.0255L6.72435 15.3798L6.72526 15.3789L6.37151 15.0255ZM6.37151 16.8175L6.72509 16.464L6.72435 16.4632L6.37151 16.8175ZM12.9675 23.4145L12.6139 23.768L12.6154 23.7695L12.9675 23.4145ZM14.7595 23.4145L15.1116 23.7695L15.113 23.7681L14.7595 23.4145ZM17.334 15.1299L13.639 18.8249L14.3461 19.5321L18.0411 15.8371L17.334 15.1299ZM13.6404 18.8235C13.6078 18.8558 13.5695 18.8705 13.5305 18.8705V19.8705C13.8395 19.8705 14.1292 19.7472 14.3446 19.5335L13.6404 18.8235ZM13.5305 18.8705C13.4898 18.8705 13.4526 18.8553 13.4222 18.8248L12.715 19.5321C12.9305 19.7476 13.2212 19.8705 13.5305 19.8705V18.8705ZM13.4123 18.8154L11.3413 16.8544L10.6537 17.5806L12.7247 19.5416L13.4123 18.8154ZM11.3504 16.8633C11.2912 16.8043 11.2922 16.7075 11.3497 16.6504L10.6454 15.9406C10.1928 16.3895 10.1936 17.1229 10.6445 17.5719L11.3504 16.8633ZM11.3514 16.6487L11.8124 16.1867L11.105 15.4799L10.6436 15.9423L11.3514 16.6487ZM11.8124 16.1867L14.585 13.4151L13.878 12.7079L11.105 15.4799L11.8124 16.1867ZM14.585 13.4151L15.0471 12.9531L14.34 12.2459L13.878 12.7079L14.585 13.4151ZM15.0471 12.9531C15.067 12.9331 15.1043 12.9142 15.1555 12.9142C15.2067 12.9142 15.2439 12.9332 15.2638 12.9532L15.9711 12.2459C15.5288 11.8037 14.7822 11.8037 14.34 12.2459L15.0471 12.9531ZM15.2736 12.9625L17.3436 14.9235L18.0314 14.1975L15.9614 12.2365L15.2736 12.9625ZM17.3354 14.9155C17.3628 14.9427 17.3785 14.9781 17.3785 15.0225H18.3785C18.3785 14.7169 18.2603 14.4242 18.0397 14.2054L17.3354 14.9155ZM17.3785 15.0225C17.3785 15.0655 17.3631 15.101 17.3354 15.1285L18.0396 15.8385C18.2599 15.62 18.3785 15.3275 18.3785 15.0225H17.3785ZM22.2801 14.103L15.6841 7.50598L14.9769 8.21303L21.5729 14.81L22.2801 14.103ZM15.6841 7.50598C15.0092 6.83113 13.8581 6.83004 13.1842 7.50669L13.8928 8.21232C14.175 7.92898 14.6917 7.92788 14.9769 8.21303L15.6841 7.50598ZM13.1852 7.50576L12.2892 8.40076L12.9959 9.10826L13.8919 8.21326L13.1852 7.50576ZM12.2892 8.40076L6.91299 13.7759L7.62003 14.4831L12.9959 9.10826L12.2892 8.40076ZM6.91299 13.7759L6.01776 14.6721L6.72526 15.3789L7.62003 14.4831L6.91299 13.7759ZM6.01867 14.6712C5.32646 15.3607 5.32646 16.4823 6.01867 17.1718L6.72435 16.4632C6.42457 16.1647 6.42457 15.6783 6.72435 15.3798L6.01867 14.6712ZM6.01793 17.171L12.6139 23.768L13.3211 23.061L6.72509 16.464L6.01793 17.171ZM12.6154 23.7695C12.9476 24.0989 13.3915 24.2855 13.8635 24.2855V23.2855C13.6595 23.2855 13.4674 23.2061 13.3196 23.0595L12.6154 23.7695ZM13.8635 24.2855C14.3367 24.2855 14.7796 24.0988 15.1116 23.7695L14.4074 23.0595C14.2594 23.2062 14.0683 23.2855 13.8635 23.2855V24.2855ZM15.113 23.7681L22.28 16.6021L21.573 15.8949L14.406 23.0609L15.113 23.7681ZM22.28 16.6021C22.6142 16.2678 22.7975 15.8215 22.7975 15.3525H21.7975C21.7975 15.5575 21.7187 15.7492 21.573 15.8949L22.28 16.6021ZM22.7975 15.3525C22.7975 14.8829 22.6145 14.436 22.2793 14.1022L21.5737 14.8108C21.7185 14.955 21.7975 15.1461 21.7975 15.3525H22.7975Z" fill="#10103F"/>
</svg>
